solid OpenSCAD_Model
  facet normal 1 0 0
    outer loop
      vertex 73.5 1223.5 1800
      vertex 73.5 1193.5 1790
      vertex 73.5 1223.5 1790
    endloop
  endfacet
  facet normal 1 0 0
    outer loop
      vertex 73.5 1223.5 1800
      vertex 73.5 53.5 1790
      vertex 73.5 1193.5 1790
    endloop
  endfacet
  facet normal 1 -0 0
    outer loop
      vertex 73.5 23.5 1800
      vertex 73.5 53.5 1790
      vertex 73.5 1223.5 1800
    endloop
  endfacet
  facet normal 1 0 0
    outer loop
      vertex 73.5 53.5 1790
      vertex 73.5 23.5 1800
      vertex 73.5 23.5 1790
    endloop
  endfacet
  facet normal 0 0 -1
    outer loop
      vertex 463.5 23.5 1800
      vertex 608.5 1223.5 1800
      vertex 608.5 23.5 1800
    endloop
  endfacet
  facet normal -0 0 -1
    outer loop
      vertex 608.5 1223.5 1800
      vertex 463.5 23.5 1800
      vertex 463.5 1223.5 1800
    endloop
  endfacet
  facet normal 0 0 -1
    outer loop
      vertex 658.5 23.5 1800
      vertex 803.5 1223.5 1800
      vertex 803.5 23.5 1800
    endloop
  endfacet
  facet normal -0 0 -1
    outer loop
      vertex 803.5 1223.5 1800
      vertex 658.5 23.5 1800
      vertex 658.5 1223.5 1800
    endloop
  endfacet
  facet normal 0 0 -1
    outer loop
      vertex 1243.5 23.5 1800
      vertex 1388.5 1223.5 1800
      vertex 1388.5 23.5 1800
    endloop
  endfacet
  facet normal -0 0 -1
    outer loop
      vertex 1388.5 1223.5 1800
      vertex 1243.5 23.5 1800
      vertex 1243.5 1223.5 1800
    endloop
  endfacet
  facet normal 0 0 -1
    outer loop
      vertex 1438.5 23.5 1800
      vertex 1583.5 1223.5 1800
      vertex 1583.5 23.5 1800
    endloop
  endfacet
  facet normal -0 0 -1
    outer loop
      vertex 1583.5 1223.5 1800
      vertex 1438.5 23.5 1800
      vertex 1438.5 1223.5 1800
    endloop
  endfacet
  facet normal 0 0 -1
    outer loop
      vertex 1633.5 23.5 1800
      vertex 1778.5 1223.5 1800
      vertex 1778.5 23.5 1800
    endloop
  endfacet
  facet normal -0 0 -1
    outer loop
      vertex 1778.5 1223.5 1800
      vertex 1633.5 23.5 1800
      vertex 1633.5 1223.5 1800
    endloop
  endfacet
  facet normal 0 0 -1
    outer loop
      vertex 853.5 23.5 1800
      vertex 998.5 1223.5 1800
      vertex 998.5 23.5 1800
    endloop
  endfacet
  facet normal -0 0 -1
    outer loop
      vertex 998.5 1223.5 1800
      vertex 853.5 23.5 1800
      vertex 853.5 1223.5 1800
    endloop
  endfacet
  facet normal 0 0 -1
    outer loop
      vertex 1048.5 23.5 1800
      vertex 1193.5 1223.5 1800
      vertex 1193.5 23.5 1800
    endloop
  endfacet
  facet normal -0 0 -1
    outer loop
      vertex 1193.5 1223.5 1800
      vertex 1048.5 23.5 1800
      vertex 1048.5 1223.5 1800
    endloop
  endfacet
  facet normal 0 0 -1
    outer loop
      vertex 73.5 23.5 1800
      vertex 218.5 1223.5 1800
      vertex 218.5 23.5 1800
    endloop
  endfacet
  facet normal -0 0 -1
    outer loop
      vertex 218.5 1223.5 1800
      vertex 73.5 23.5 1800
      vertex 73.5 1223.5 1800
    endloop
  endfacet
  facet normal 0 0 -1
    outer loop
      vertex 268.5 23.5 1800
      vertex 413.5 1223.5 1800
      vertex 413.5 23.5 1800
    endloop
  endfacet
  facet normal -0 0 -1
    outer loop
      vertex 413.5 1223.5 1800
      vertex 268.5 23.5 1800
      vertex 268.5 1223.5 1800
    endloop
  endfacet
  facet normal 0 0 -1
    outer loop
      vertex 1828.5 23.5 1800
      vertex 1973.5 1223.5 1800
      vertex 1973.5 23.5 1800
    endloop
  endfacet
  facet normal -0 0 -1
    outer loop
      vertex 1973.5 1223.5 1800
      vertex 1828.5 23.5 1800
      vertex 1828.5 1223.5 1800
    endloop
  endfacet
  facet normal 0 0 -1
    outer loop
      vertex 23.5 53.5 1790
      vertex 73.5 1193.5 1790
      vertex 73.5 53.5 1790
    endloop
  endfacet
  facet normal -0 0 -1
    outer loop
      vertex 73.5 1193.5 1790
      vertex 23.5 53.5 1790
      vertex 23.5 1193.5 1790
    endloop
  endfacet
  facet normal 0 0 -1
    outer loop
      vertex 1973.5 53.5 1790
      vertex 2023.5 1193.5 1790
      vertex 2023.5 53.5 1790
    endloop
  endfacet
  facet normal -0 0 -1
    outer loop
      vertex 2023.5 1193.5 1790
      vertex 1973.5 53.5 1790
      vertex 1973.5 1193.5 1790
    endloop
  endfacet
  facet normal -0 0 1
    outer loop
      vertex 658.5 1223.5 1790
      vertex 803.5 1193.5 1790
      vertex 803.5 1223.5 1790
    endloop
  endfacet
  facet normal 0 0 1
    outer loop
      vertex 803.5 1193.5 1790
      vertex 658.5 1223.5 1790
      vertex 658.5 1193.5 1790
    endloop
  endfacet
  facet normal -0 0 1
    outer loop
      vertex 658.5 53.5 1790
      vertex 803.5 23.5 1790
      vertex 803.5 53.5 1790
    endloop
  endfacet
  facet normal 0 0 1
    outer loop
      vertex 803.5 23.5 1790
      vertex 658.5 53.5 1790
      vertex 658.5 23.5 1790
    endloop
  endfacet
  facet normal -0 0 1
    outer loop
      vertex 463.5 53.5 1790
      vertex 608.5 23.5 1790
      vertex 608.5 53.5 1790
    endloop
  endfacet
  facet normal 0 0 1
    outer loop
      vertex 608.5 23.5 1790
      vertex 463.5 53.5 1790
      vertex 463.5 23.5 1790
    endloop
  endfacet
  facet normal -0 0 1
    outer loop
      vertex 463.5 1223.5 1790
      vertex 608.5 1193.5 1790
      vertex 608.5 1223.5 1790
    endloop
  endfacet
  facet normal 0 0 1
    outer loop
      vertex 608.5 1193.5 1790
      vertex 463.5 1223.5 1790
      vertex 463.5 1193.5 1790
    endloop
  endfacet
  facet normal -0 0 1
    outer loop
      vertex 1438.5 1223.5 1790
      vertex 1583.5 1193.5 1790
      vertex 1583.5 1223.5 1790
    endloop
  endfacet
  facet normal 0 0 1
    outer loop
      vertex 1583.5 1193.5 1790
      vertex 1438.5 1223.5 1790
      vertex 1438.5 1193.5 1790
    endloop
  endfacet
  facet normal -0 0 1
    outer loop
      vertex 1438.5 53.5 1790
      vertex 1583.5 23.5 1790
      vertex 1583.5 53.5 1790
    endloop
  endfacet
  facet normal 0 0 1
    outer loop
      vertex 1583.5 23.5 1790
      vertex 1438.5 53.5 1790
      vertex 1438.5 23.5 1790
    endloop
  endfacet
  facet normal -0 0 1
    outer loop
      vertex 1243.5 53.5 1790
      vertex 1388.5 23.5 1790
      vertex 1388.5 53.5 1790
    endloop
  endfacet
  facet normal 0 0 1
    outer loop
      vertex 1388.5 23.5 1790
      vertex 1243.5 53.5 1790
      vertex 1243.5 23.5 1790
    endloop
  endfacet
  facet normal -0 0 1
    outer loop
      vertex 1243.5 1223.5 1790
      vertex 1388.5 1193.5 1790
      vertex 1388.5 1223.5 1790
    endloop
  endfacet
  facet normal 0 0 1
    outer loop
      vertex 1388.5 1193.5 1790
      vertex 1243.5 1223.5 1790
      vertex 1243.5 1193.5 1790
    endloop
  endfacet
  facet normal -0 0 1
    outer loop
      vertex 1633.5 1223.5 1790
      vertex 1778.5 1193.5 1790
      vertex 1778.5 1223.5 1790
    endloop
  endfacet
  facet normal 0 0 1
    outer loop
      vertex 1778.5 1193.5 1790
      vertex 1633.5 1223.5 1790
      vertex 1633.5 1193.5 1790
    endloop
  endfacet
  facet normal -0 0 1
    outer loop
      vertex 1633.5 53.5 1790
      vertex 1778.5 23.5 1790
      vertex 1778.5 53.5 1790
    endloop
  endfacet
  facet normal 0 0 1
    outer loop
      vertex 1778.5 23.5 1790
      vertex 1633.5 53.5 1790
      vertex 1633.5 23.5 1790
    endloop
  endfacet
  facet normal -0 0 1
    outer loop
      vertex 853.5 1223.5 1790
      vertex 998.5 1193.5 1790
      vertex 998.5 1223.5 1790
    endloop
  endfacet
  facet normal 0 0 1
    outer loop
      vertex 998.5 1193.5 1790
      vertex 853.5 1223.5 1790
      vertex 853.5 1193.5 1790
    endloop
  endfacet
  facet normal -0 0 1
    outer loop
      vertex 853.5 53.5 1790
      vertex 998.5 23.5 1790
      vertex 998.5 53.5 1790
    endloop
  endfacet
  facet normal 0 0 1
    outer loop
      vertex 998.5 23.5 1790
      vertex 853.5 53.5 1790
      vertex 853.5 23.5 1790
    endloop
  endfacet
  facet normal -0 0 1
    outer loop
      vertex 1048.5 53.5 1790
      vertex 1193.5 23.5 1790
      vertex 1193.5 53.5 1790
    endloop
  endfacet
  facet normal 0 0 1
    outer loop
      vertex 1193.5 23.5 1790
      vertex 1048.5 53.5 1790
      vertex 1048.5 23.5 1790
    endloop
  endfacet
  facet normal -0 0 1
    outer loop
      vertex 1048.5 1223.5 1790
      vertex 1193.5 1193.5 1790
      vertex 1193.5 1223.5 1790
    endloop
  endfacet
  facet normal 0 0 1
    outer loop
      vertex 1193.5 1193.5 1790
      vertex 1048.5 1223.5 1790
      vertex 1048.5 1193.5 1790
    endloop
  endfacet
  facet normal -0 0 1
    outer loop
      vertex 73.5 1223.5 1790
      vertex 218.5 1193.5 1790
      vertex 218.5 1223.5 1790
    endloop
  endfacet
  facet normal 0 0 1
    outer loop
      vertex 218.5 1193.5 1790
      vertex 73.5 1223.5 1790
      vertex 73.5 1193.5 1790
    endloop
  endfacet
  facet normal -0 0 1
    outer loop
      vertex 73.5 53.5 1790
      vertex 218.5 23.5 1790
      vertex 218.5 53.5 1790
    endloop
  endfacet
  facet normal 0 0 1
    outer loop
      vertex 218.5 23.5 1790
      vertex 73.5 53.5 1790
      vertex 73.5 23.5 1790
    endloop
  endfacet
  facet normal -0 0 1
    outer loop
      vertex 268.5 1223.5 1790
      vertex 413.5 1193.5 1790
      vertex 413.5 1223.5 1790
    endloop
  endfacet
  facet normal 0 0 1
    outer loop
      vertex 413.5 1193.5 1790
      vertex 268.5 1223.5 1790
      vertex 268.5 1193.5 1790
    endloop
  endfacet
  facet normal -0 0 1
    outer loop
      vertex 268.5 53.5 1790
      vertex 413.5 23.5 1790
      vertex 413.5 53.5 1790
    endloop
  endfacet
  facet normal 0 0 1
    outer loop
      vertex 413.5 23.5 1790
      vertex 268.5 53.5 1790
      vertex 268.5 23.5 1790
    endloop
  endfacet
  facet normal -0 0 1
    outer loop
      vertex 1828.5 53.5 1790
      vertex 1973.5 23.5 1790
      vertex 1973.5 53.5 1790
    endloop
  endfacet
  facet normal 0 0 1
    outer loop
      vertex 1973.5 23.5 1790
      vertex 1828.5 53.5 1790
      vertex 1828.5 23.5 1790
    endloop
  endfacet
  facet normal -0 0 1
    outer loop
      vertex 1828.5 1223.5 1790
      vertex 1973.5 1193.5 1790
      vertex 1973.5 1223.5 1790
    endloop
  endfacet
  facet normal 0 0 1
    outer loop
      vertex 1973.5 1193.5 1790
      vertex 1828.5 1223.5 1790
      vertex 1828.5 1193.5 1790
    endloop
  endfacet
  facet normal 0 0 -1
    outer loop
      vertex 218.5 53.5 1790
      vertex 268.5 1193.5 1790
      vertex 268.5 53.5 1790
    endloop
  endfacet
  facet normal -0 0 -1
    outer loop
      vertex 268.5 1193.5 1790
      vertex 218.5 53.5 1790
      vertex 218.5 1193.5 1790
    endloop
  endfacet
  facet normal 0 0 -1
    outer loop
      vertex 413.5 53.5 1790
      vertex 463.5 1193.5 1790
      vertex 463.5 53.5 1790
    endloop
  endfacet
  facet normal -0 0 -1
    outer loop
      vertex 463.5 1193.5 1790
      vertex 413.5 53.5 1790
      vertex 413.5 1193.5 1790
    endloop
  endfacet
  facet normal 0 0 -1
    outer loop
      vertex 608.5 53.5 1790
      vertex 658.5 1193.5 1790
      vertex 658.5 53.5 1790
    endloop
  endfacet
  facet normal -0 0 -1
    outer loop
      vertex 658.5 1193.5 1790
      vertex 608.5 53.5 1790
      vertex 608.5 1193.5 1790
    endloop
  endfacet
  facet normal 0 0 -1
    outer loop
      vertex 803.5 53.5 1790
      vertex 853.5 1193.5 1790
      vertex 853.5 53.5 1790
    endloop
  endfacet
  facet normal -0 0 -1
    outer loop
      vertex 853.5 1193.5 1790
      vertex 803.5 53.5 1790
      vertex 803.5 1193.5 1790
    endloop
  endfacet
  facet normal 0 0 -1
    outer loop
      vertex 998.5 53.5 1790
      vertex 1048.5 1193.5 1790
      vertex 1048.5 53.5 1790
    endloop
  endfacet
  facet normal -0 0 -1
    outer loop
      vertex 1048.5 1193.5 1790
      vertex 998.5 53.5 1790
      vertex 998.5 1193.5 1790
    endloop
  endfacet
  facet normal 0 0 -1
    outer loop
      vertex 1193.5 53.5 1790
      vertex 1243.5 1193.5 1790
      vertex 1243.5 53.5 1790
    endloop
  endfacet
  facet normal -0 0 -1
    outer loop
      vertex 1243.5 1193.5 1790
      vertex 1193.5 53.5 1790
      vertex 1193.5 1193.5 1790
    endloop
  endfacet
  facet normal 0 0 -1
    outer loop
      vertex 1388.5 53.5 1790
      vertex 1438.5 1193.5 1790
      vertex 1438.5 53.5 1790
    endloop
  endfacet
  facet normal -0 0 -1
    outer loop
      vertex 1438.5 1193.5 1790
      vertex 1388.5 53.5 1790
      vertex 1388.5 1193.5 1790
    endloop
  endfacet
  facet normal 0 0 -1
    outer loop
      vertex 1583.5 53.5 1790
      vertex 1633.5 1193.5 1790
      vertex 1633.5 53.5 1790
    endloop
  endfacet
  facet normal -0 0 -1
    outer loop
      vertex 1633.5 1193.5 1790
      vertex 1583.5 53.5 1790
      vertex 1583.5 1193.5 1790
    endloop
  endfacet
  facet normal 0 0 -1
    outer loop
      vertex 1778.5 53.5 1790
      vertex 1828.5 1193.5 1790
      vertex 1828.5 53.5 1790
    endloop
  endfacet
  facet normal -0 0 -1
    outer loop
      vertex 1828.5 1193.5 1790
      vertex 1778.5 53.5 1790
      vertex 1778.5 1193.5 1790
    endloop
  endfacet
  facet normal -1 0 0
    outer loop
      vertex 23.5 53.5 1730
      vertex 23.5 23.5 1730
      vertex 23.5 53.5 1790
    endloop
  endfacet
  facet normal -1 0 0
    outer loop
      vertex 23.5 1193.5 1790
      vertex 23.5 1223.5 1730
      vertex 23.5 1193.5 1730
    endloop
  endfacet
  facet normal -1 0 0
    outer loop
      vertex 23.5 1223.5 1730
      vertex 23.5 1193.5 1790
      vertex 23.5 1223.5 2000
    endloop
  endfacet
  facet normal -1 0 0
    outer loop
      vertex 23.5 53.5 1790
      vertex 23.5 1223.5 2000
      vertex 23.5 1193.5 1790
    endloop
  endfacet
  facet normal -1 0 0
    outer loop
      vertex 23.5 53.5 1790
      vertex 23.5 23.5 2000
      vertex 23.5 1223.5 2000
    endloop
  endfacet
  facet normal -1 0 0
    outer loop
      vertex 23.5 23.5 2000
      vertex 23.5 53.5 1790
      vertex 23.5 23.5 1730
    endloop
  endfacet
  facet normal 0 1 -0
    outer loop
      vertex 268.5 1223.5 1790
      vertex 218.5 1223.5 1800
      vertex 268.5 1223.5 1800
    endloop
  endfacet
  facet normal 0 1 0
    outer loop
      vertex 218.5 1223.5 1800
      vertex 268.5 1223.5 1790
      vertex 218.5 1223.5 1790
    endloop
  endfacet
  facet normal 0 1 -0
    outer loop
      vertex 463.5 1223.5 1790
      vertex 413.5 1223.5 1800
      vertex 463.5 1223.5 1800
    endloop
  endfacet
  facet normal 0 1 0
    outer loop
      vertex 413.5 1223.5 1800
      vertex 463.5 1223.5 1790
      vertex 413.5 1223.5 1790
    endloop
  endfacet
  facet normal 0 1 -0
    outer loop
      vertex 658.5 1223.5 1790
      vertex 608.5 1223.5 1800
      vertex 658.5 1223.5 1800
    endloop
  endfacet
  facet normal 0 1 0
    outer loop
      vertex 608.5 1223.5 1800
      vertex 658.5 1223.5 1790
      vertex 608.5 1223.5 1790
    endloop
  endfacet
  facet normal 0 1 -0
    outer loop
      vertex 853.5 1223.5 1790
      vertex 803.5 1223.5 1800
      vertex 853.5 1223.5 1800
    endloop
  endfacet
  facet normal 0 1 0
    outer loop
      vertex 803.5 1223.5 1800
      vertex 853.5 1223.5 1790
      vertex 803.5 1223.5 1790
    endloop
  endfacet
  facet normal 0 1 -0
    outer loop
      vertex 1048.5 1223.5 1790
      vertex 998.5 1223.5 1800
      vertex 1048.5 1223.5 1800
    endloop
  endfacet
  facet normal 0 1 0
    outer loop
      vertex 998.5 1223.5 1800
      vertex 1048.5 1223.5 1790
      vertex 998.5 1223.5 1790
    endloop
  endfacet
  facet normal 0 1 -0
    outer loop
      vertex 1243.5 1223.5 1790
      vertex 1193.5 1223.5 1800
      vertex 1243.5 1223.5 1800
    endloop
  endfacet
  facet normal 0 1 0
    outer loop
      vertex 1193.5 1223.5 1800
      vertex 1243.5 1223.5 1790
      vertex 1193.5 1223.5 1790
    endloop
  endfacet
  facet normal 0 1 -0
    outer loop
      vertex 1438.5 1223.5 1790
      vertex 1388.5 1223.5 1800
      vertex 1438.5 1223.5 1800
    endloop
  endfacet
  facet normal 0 1 0
    outer loop
      vertex 1388.5 1223.5 1800
      vertex 1438.5 1223.5 1790
      vertex 1388.5 1223.5 1790
    endloop
  endfacet
  facet normal 0 1 -0
    outer loop
      vertex 1633.5 1223.5 1790
      vertex 1583.5 1223.5 1800
      vertex 1633.5 1223.5 1800
    endloop
  endfacet
  facet normal 0 1 0
    outer loop
      vertex 1583.5 1223.5 1800
      vertex 1633.5 1223.5 1790
      vertex 1583.5 1223.5 1790
    endloop
  endfacet
  facet normal 0 1 -0
    outer loop
      vertex 1828.5 1223.5 1790
      vertex 1778.5 1223.5 1800
      vertex 1828.5 1223.5 1800
    endloop
  endfacet
  facet normal 0 1 0
    outer loop
      vertex 1778.5 1223.5 1800
      vertex 1828.5 1223.5 1790
      vertex 1778.5 1223.5 1790
    endloop
  endfacet
  facet normal 0 1 0
    outer loop
      vertex 1828.5 1223.5 1800
      vertex 2023.5 1223.5 2000
      vertex 1973.5 1223.5 1800
    endloop
  endfacet
  facet normal 0 1 -0
    outer loop
      vertex 2023.5 1223.5 1730
      vertex 1973.5 1223.5 1800
      vertex 2023.5 1223.5 2000
    endloop
  endfacet
  facet normal 0 1 0
    outer loop
      vertex 2023.5 1223.5 1730
      vertex 1828.5 1223.5 1790
      vertex 1973.5 1223.5 1790
    endloop
  endfacet
  facet normal 0 1 0
    outer loop
      vertex 1828.5 1223.5 1790
      vertex 2023.5 1223.5 1730
      vertex 1778.5 1223.5 1790
    endloop
  endfacet
  facet normal 0 1 0
    outer loop
      vertex 1778.5 1223.5 1790
      vertex 2023.5 1223.5 1730
      vertex 1633.5 1223.5 1790
    endloop
  endfacet
  facet normal 0 1 0
    outer loop
      vertex 1633.5 1223.5 1790
      vertex 2023.5 1223.5 1730
      vertex 1583.5 1223.5 1790
    endloop
  endfacet
  facet normal 0 1 0
    outer loop
      vertex 1583.5 1223.5 1790
      vertex 2023.5 1223.5 1730
      vertex 1438.5 1223.5 1790
    endloop
  endfacet
  facet normal 0 1 0
    outer loop
      vertex 1438.5 1223.5 1790
      vertex 2023.5 1223.5 1730
      vertex 1388.5 1223.5 1790
    endloop
  endfacet
  facet normal 0 1 0
    outer loop
      vertex 1388.5 1223.5 1790
      vertex 2023.5 1223.5 1730
      vertex 1243.5 1223.5 1790
    endloop
  endfacet
  facet normal 0 1 0
    outer loop
      vertex 1243.5 1223.5 1790
      vertex 2023.5 1223.5 1730
      vertex 1193.5 1223.5 1790
    endloop
  endfacet
  facet normal 0 1 0
    outer loop
      vertex 1193.5 1223.5 1790
      vertex 2023.5 1223.5 1730
      vertex 1048.5 1223.5 1790
    endloop
  endfacet
  facet normal 0 1 0
    outer loop
      vertex 1048.5 1223.5 1790
      vertex 2023.5 1223.5 1730
      vertex 998.5 1223.5 1790
    endloop
  endfacet
  facet normal 0 1 0
    outer loop
      vertex 23.5 1223.5 1730
      vertex 998.5 1223.5 1790
      vertex 2023.5 1223.5 1730
    endloop
  endfacet
  facet normal 0 1 0
    outer loop
      vertex 998.5 1223.5 1790
      vertex 23.5 1223.5 1730
      vertex 853.5 1223.5 1790
    endloop
  endfacet
  facet normal 0 1 0
    outer loop
      vertex 853.5 1223.5 1790
      vertex 23.5 1223.5 1730
      vertex 803.5 1223.5 1790
    endloop
  endfacet
  facet normal 0 1 0
    outer loop
      vertex 803.5 1223.5 1790
      vertex 23.5 1223.5 1730
      vertex 658.5 1223.5 1790
    endloop
  endfacet
  facet normal 0 1 0
    outer loop
      vertex 658.5 1223.5 1790
      vertex 23.5 1223.5 1730
      vertex 608.5 1223.5 1790
    endloop
  endfacet
  facet normal 0 1 0
    outer loop
      vertex 608.5 1223.5 1790
      vertex 23.5 1223.5 1730
      vertex 463.5 1223.5 1790
    endloop
  endfacet
  facet normal 0 1 0
    outer loop
      vertex 463.5 1223.5 1790
      vertex 23.5 1223.5 1730
      vertex 413.5 1223.5 1790
    endloop
  endfacet
  facet normal 0 1 0
    outer loop
      vertex 413.5 1223.5 1790
      vertex 23.5 1223.5 1730
      vertex 268.5 1223.5 1790
    endloop
  endfacet
  facet normal 0 1 0
    outer loop
      vertex 268.5 1223.5 1790
      vertex 23.5 1223.5 1730
      vertex 218.5 1223.5 1790
    endloop
  endfacet
  facet normal 0 1 0
    outer loop
      vertex 1973.5 1223.5 1800
      vertex 2023.5 1223.5 1730
      vertex 1973.5 1223.5 1790
    endloop
  endfacet
  facet normal 0 1 0
    outer loop
      vertex 1778.5 1223.5 1800
      vertex 2023.5 1223.5 2000
      vertex 1828.5 1223.5 1800
    endloop
  endfacet
  facet normal 0 1 0
    outer loop
      vertex 1633.5 1223.5 1800
      vertex 2023.5 1223.5 2000
      vertex 1778.5 1223.5 1800
    endloop
  endfacet
  facet normal 0 1 0
    outer loop
      vertex 1583.5 1223.5 1800
      vertex 2023.5 1223.5 2000
      vertex 1633.5 1223.5 1800
    endloop
  endfacet
  facet normal 0 1 0
    outer loop
      vertex 1438.5 1223.5 1800
      vertex 2023.5 1223.5 2000
      vertex 1583.5 1223.5 1800
    endloop
  endfacet
  facet normal 0 1 0
    outer loop
      vertex 1388.5 1223.5 1800
      vertex 2023.5 1223.5 2000
      vertex 1438.5 1223.5 1800
    endloop
  endfacet
  facet normal 0 1 0
    outer loop
      vertex 1243.5 1223.5 1800
      vertex 2023.5 1223.5 2000
      vertex 1388.5 1223.5 1800
    endloop
  endfacet
  facet normal 0 1 0
    outer loop
      vertex 1193.5 1223.5 1800
      vertex 2023.5 1223.5 2000
      vertex 1243.5 1223.5 1800
    endloop
  endfacet
  facet normal 0 1 0
    outer loop
      vertex 1048.5 1223.5 1800
      vertex 2023.5 1223.5 2000
      vertex 1193.5 1223.5 1800
    endloop
  endfacet
  facet normal 0 1 0
    outer loop
      vertex 2023.5 1223.5 2000
      vertex 1048.5 1223.5 1800
      vertex 23.5 1223.5 2000
    endloop
  endfacet
  facet normal 0 1 -0
    outer loop
      vertex 998.5 1223.5 1800
      vertex 23.5 1223.5 2000
      vertex 1048.5 1223.5 1800
    endloop
  endfacet
  facet normal 0 1 -0
    outer loop
      vertex 853.5 1223.5 1800
      vertex 23.5 1223.5 2000
      vertex 998.5 1223.5 1800
    endloop
  endfacet
  facet normal 0 1 -0
    outer loop
      vertex 803.5 1223.5 1800
      vertex 23.5 1223.5 2000
      vertex 853.5 1223.5 1800
    endloop
  endfacet
  facet normal 0 1 -0
    outer loop
      vertex 658.5 1223.5 1800
      vertex 23.5 1223.5 2000
      vertex 803.5 1223.5 1800
    endloop
  endfacet
  facet normal 0 1 -0
    outer loop
      vertex 608.5 1223.5 1800
      vertex 23.5 1223.5 2000
      vertex 658.5 1223.5 1800
    endloop
  endfacet
  facet normal 0 1 -0
    outer loop
      vertex 463.5 1223.5 1800
      vertex 23.5 1223.5 2000
      vertex 608.5 1223.5 1800
    endloop
  endfacet
  facet normal 0 1 -0
    outer loop
      vertex 413.5 1223.5 1800
      vertex 23.5 1223.5 2000
      vertex 463.5 1223.5 1800
    endloop
  endfacet
  facet normal 0 1 -0
    outer loop
      vertex 268.5 1223.5 1800
      vertex 23.5 1223.5 2000
      vertex 413.5 1223.5 1800
    endloop
  endfacet
  facet normal 0 1 -0
    outer loop
      vertex 218.5 1223.5 1800
      vertex 23.5 1223.5 2000
      vertex 268.5 1223.5 1800
    endloop
  endfacet
  facet normal 0 1 -0
    outer loop
      vertex 73.5 1223.5 1800
      vertex 23.5 1223.5 2000
      vertex 218.5 1223.5 1800
    endloop
  endfacet
  facet normal 0 1 0
    outer loop
      vertex 23.5 1223.5 1730
      vertex 73.5 1223.5 1800
      vertex 73.5 1223.5 1790
    endloop
  endfacet
  facet normal 0 1 0
    outer loop
      vertex 73.5 1223.5 1800
      vertex 23.5 1223.5 1730
      vertex 23.5 1223.5 2000
    endloop
  endfacet
  facet normal 0 1 0
    outer loop
      vertex 218.5 1223.5 1790
      vertex 23.5 1223.5 1730
      vertex 73.5 1223.5 1790
    endloop
  endfacet
  facet normal 0 -1 0
    outer loop
      vertex 1778.5 23.5 1790
      vertex 1828.5 23.5 1800
      vertex 1778.5 23.5 1800
    endloop
  endfacet
  facet normal 0 -1 -0
    outer loop
      vertex 1828.5 23.5 1800
      vertex 1778.5 23.5 1790
      vertex 1828.5 23.5 1790
    endloop
  endfacet
  facet normal 0 -1 0
    outer loop
      vertex 1583.5 23.5 1790
      vertex 1633.5 23.5 1800
      vertex 1583.5 23.5 1800
    endloop
  endfacet
  facet normal 0 -1 -0
    outer loop
      vertex 1633.5 23.5 1800
      vertex 1583.5 23.5 1790
      vertex 1633.5 23.5 1790
    endloop
  endfacet
  facet normal 0 -1 0
    outer loop
      vertex 1388.5 23.5 1790
      vertex 1438.5 23.5 1800
      vertex 1388.5 23.5 1800
    endloop
  endfacet
  facet normal 0 -1 -0
    outer loop
      vertex 1438.5 23.5 1800
      vertex 1388.5 23.5 1790
      vertex 1438.5 23.5 1790
    endloop
  endfacet
  facet normal 0 -1 0
    outer loop
      vertex 1193.5 23.5 1790
      vertex 1243.5 23.5 1800
      vertex 1193.5 23.5 1800
    endloop
  endfacet
  facet normal 0 -1 -0
    outer loop
      vertex 1243.5 23.5 1800
      vertex 1193.5 23.5 1790
      vertex 1243.5 23.5 1790
    endloop
  endfacet
  facet normal 0 -1 0
    outer loop
      vertex 998.5 23.5 1790
      vertex 1048.5 23.5 1800
      vertex 998.5 23.5 1800
    endloop
  endfacet
  facet normal 0 -1 -0
    outer loop
      vertex 1048.5 23.5 1800
      vertex 998.5 23.5 1790
      vertex 1048.5 23.5 1790
    endloop
  endfacet
  facet normal 0 -1 0
    outer loop
      vertex 803.5 23.5 1790
      vertex 853.5 23.5 1800
      vertex 803.5 23.5 1800
    endloop
  endfacet
  facet normal 0 -1 -0
    outer loop
      vertex 853.5 23.5 1800
      vertex 803.5 23.5 1790
      vertex 853.5 23.5 1790
    endloop
  endfacet
  facet normal 0 -1 0
    outer loop
      vertex 608.5 23.5 1790
      vertex 658.5 23.5 1800
      vertex 608.5 23.5 1800
    endloop
  endfacet
  facet normal 0 -1 -0
    outer loop
      vertex 658.5 23.5 1800
      vertex 608.5 23.5 1790
      vertex 658.5 23.5 1790
    endloop
  endfacet
  facet normal 0 -1 0
    outer loop
      vertex 413.5 23.5 1790
      vertex 463.5 23.5 1800
      vertex 413.5 23.5 1800
    endloop
  endfacet
  facet normal 0 -1 -0
    outer loop
      vertex 463.5 23.5 1800
      vertex 413.5 23.5 1790
      vertex 463.5 23.5 1790
    endloop
  endfacet
  facet normal 0 -1 0
    outer loop
      vertex 218.5 23.5 1790
      vertex 268.5 23.5 1800
      vertex 218.5 23.5 1800
    endloop
  endfacet
  facet normal 0 -1 -0
    outer loop
      vertex 268.5 23.5 1800
      vertex 218.5 23.5 1790
      vertex 268.5 23.5 1790
    endloop
  endfacet
  facet normal 0 -1 0
    outer loop
      vertex 218.5 23.5 1800
      vertex 23.5 23.5 2000
      vertex 73.5 23.5 1800
    endloop
  endfacet
  facet normal 0 -1 0
    outer loop
      vertex 23.5 23.5 1730
      vertex 73.5 23.5 1800
      vertex 23.5 23.5 2000
    endloop
  endfacet
  facet normal 0 -1 0
    outer loop
      vertex 23.5 23.5 1730
      vertex 218.5 23.5 1790
      vertex 73.5 23.5 1790
    endloop
  endfacet
  facet normal 0 -1 -0
    outer loop
      vertex 218.5 23.5 1790
      vertex 23.5 23.5 1730
      vertex 268.5 23.5 1790
    endloop
  endfacet
  facet normal 0 -1 -0
    outer loop
      vertex 268.5 23.5 1790
      vertex 23.5 23.5 1730
      vertex 413.5 23.5 1790
    endloop
  endfacet
  facet normal 0 -1 -0
    outer loop
      vertex 413.5 23.5 1790
      vertex 23.5 23.5 1730
      vertex 463.5 23.5 1790
    endloop
  endfacet
  facet normal 0 -1 -0
    outer loop
      vertex 463.5 23.5 1790
      vertex 23.5 23.5 1730
      vertex 608.5 23.5 1790
    endloop
  endfacet
  facet normal 0 -1 -0
    outer loop
      vertex 608.5 23.5 1790
      vertex 23.5 23.5 1730
      vertex 658.5 23.5 1790
    endloop
  endfacet
  facet normal 0 -1 -0
    outer loop
      vertex 658.5 23.5 1790
      vertex 23.5 23.5 1730
      vertex 803.5 23.5 1790
    endloop
  endfacet
  facet normal 0 -1 -0
    outer loop
      vertex 803.5 23.5 1790
      vertex 23.5 23.5 1730
      vertex 853.5 23.5 1790
    endloop
  endfacet
  facet normal 0 -1 -0
    outer loop
      vertex 853.5 23.5 1790
      vertex 23.5 23.5 1730
      vertex 998.5 23.5 1790
    endloop
  endfacet
  facet normal 0 -1 -0
    outer loop
      vertex 998.5 23.5 1790
      vertex 23.5 23.5 1730
      vertex 1048.5 23.5 1790
    endloop
  endfacet
  facet normal 0 -1 0
    outer loop
      vertex 2023.5 23.5 1730
      vertex 1048.5 23.5 1790
      vertex 23.5 23.5 1730
    endloop
  endfacet
  facet normal 0 -1 0
    outer loop
      vertex 1048.5 23.5 1790
      vertex 2023.5 23.5 1730
      vertex 1193.5 23.5 1790
    endloop
  endfacet
  facet normal 0 -1 0
    outer loop
      vertex 1193.5 23.5 1790
      vertex 2023.5 23.5 1730
      vertex 1243.5 23.5 1790
    endloop
  endfacet
  facet normal 0 -1 0
    outer loop
      vertex 1243.5 23.5 1790
      vertex 2023.5 23.5 1730
      vertex 1388.5 23.5 1790
    endloop
  endfacet
  facet normal 0 -1 0
    outer loop
      vertex 1388.5 23.5 1790
      vertex 2023.5 23.5 1730
      vertex 1438.5 23.5 1790
    endloop
  endfacet
  facet normal 0 -1 0
    outer loop
      vertex 1438.5 23.5 1790
      vertex 2023.5 23.5 1730
      vertex 1583.5 23.5 1790
    endloop
  endfacet
  facet normal 0 -1 0
    outer loop
      vertex 1583.5 23.5 1790
      vertex 2023.5 23.5 1730
      vertex 1633.5 23.5 1790
    endloop
  endfacet
  facet normal 0 -1 0
    outer loop
      vertex 1633.5 23.5 1790
      vertex 2023.5 23.5 1730
      vertex 1778.5 23.5 1790
    endloop
  endfacet
  facet normal 0 -1 0
    outer loop
      vertex 1778.5 23.5 1790
      vertex 2023.5 23.5 1730
      vertex 1828.5 23.5 1790
    endloop
  endfacet
  facet normal 0 -1 -0
    outer loop
      vertex 73.5 23.5 1800
      vertex 23.5 23.5 1730
      vertex 73.5 23.5 1790
    endloop
  endfacet
  facet normal 0 -1 0
    outer loop
      vertex 268.5 23.5 1800
      vertex 23.5 23.5 2000
      vertex 218.5 23.5 1800
    endloop
  endfacet
  facet normal 0 -1 0
    outer loop
      vertex 413.5 23.5 1800
      vertex 23.5 23.5 2000
      vertex 268.5 23.5 1800
    endloop
  endfacet
  facet normal 0 -1 0
    outer loop
      vertex 463.5 23.5 1800
      vertex 23.5 23.5 2000
      vertex 413.5 23.5 1800
    endloop
  endfacet
  facet normal 0 -1 0
    outer loop
      vertex 608.5 23.5 1800
      vertex 23.5 23.5 2000
      vertex 463.5 23.5 1800
    endloop
  endfacet
  facet normal 0 -1 0
    outer loop
      vertex 658.5 23.5 1800
      vertex 23.5 23.5 2000
      vertex 608.5 23.5 1800
    endloop
  endfacet
  facet normal 0 -1 0
    outer loop
      vertex 803.5 23.5 1800
      vertex 23.5 23.5 2000
      vertex 658.5 23.5 1800
    endloop
  endfacet
  facet normal 0 -1 0
    outer loop
      vertex 853.5 23.5 1800
      vertex 23.5 23.5 2000
      vertex 803.5 23.5 1800
    endloop
  endfacet
  facet normal 0 -1 0
    outer loop
      vertex 998.5 23.5 1800
      vertex 23.5 23.5 2000
      vertex 853.5 23.5 1800
    endloop
  endfacet
  facet normal 0 -1 0
    outer loop
      vertex 23.5 23.5 2000
      vertex 998.5 23.5 1800
      vertex 2023.5 23.5 2000
    endloop
  endfacet
  facet normal 0 -1 0
    outer loop
      vertex 1048.5 23.5 1800
      vertex 2023.5 23.5 2000
      vertex 998.5 23.5 1800
    endloop
  endfacet
  facet normal 0 -1 0
    outer loop
      vertex 1193.5 23.5 1800
      vertex 2023.5 23.5 2000
      vertex 1048.5 23.5 1800
    endloop
  endfacet
  facet normal 0 -1 0
    outer loop
      vertex 1243.5 23.5 1800
      vertex 2023.5 23.5 2000
      vertex 1193.5 23.5 1800
    endloop
  endfacet
  facet normal 0 -1 0
    outer loop
      vertex 1388.5 23.5 1800
      vertex 2023.5 23.5 2000
      vertex 1243.5 23.5 1800
    endloop
  endfacet
  facet normal 0 -1 0
    outer loop
      vertex 1438.5 23.5 1800
      vertex 2023.5 23.5 2000
      vertex 1388.5 23.5 1800
    endloop
  endfacet
  facet normal 0 -1 0
    outer loop
      vertex 1583.5 23.5 1800
      vertex 2023.5 23.5 2000
      vertex 1438.5 23.5 1800
    endloop
  endfacet
  facet normal 0 -1 0
    outer loop
      vertex 1633.5 23.5 1800
      vertex 2023.5 23.5 2000
      vertex 1583.5 23.5 1800
    endloop
  endfacet
  facet normal 0 -1 0
    outer loop
      vertex 1778.5 23.5 1800
      vertex 2023.5 23.5 2000
      vertex 1633.5 23.5 1800
    endloop
  endfacet
  facet normal 0 -1 0
    outer loop
      vertex 1828.5 23.5 1800
      vertex 2023.5 23.5 2000
      vertex 1778.5 23.5 1800
    endloop
  endfacet
  facet normal 0 -1 0
    outer loop
      vertex 1973.5 23.5 1800
      vertex 2023.5 23.5 2000
      vertex 1828.5 23.5 1800
    endloop
  endfacet
  facet normal 0 -1 0
    outer loop
      vertex 2023.5 23.5 1730
      vertex 1973.5 23.5 1800
      vertex 1973.5 23.5 1790
    endloop
  endfacet
  facet normal 0 -1 0
    outer loop
      vertex 1973.5 23.5 1800
      vertex 2023.5 23.5 1730
      vertex 2023.5 23.5 2000
    endloop
  endfacet
  facet normal 0 -1 0
    outer loop
      vertex 1828.5 23.5 1790
      vertex 2023.5 23.5 1730
      vertex 1973.5 23.5 1790
    endloop
  endfacet
  facet normal 1 0 0
    outer loop
      vertex 268.5 1223.5 1800
      vertex 268.5 1193.5 1790
      vertex 268.5 1223.5 1790
    endloop
  endfacet
  facet normal 1 0 0
    outer loop
      vertex 268.5 1223.5 1800
      vertex 268.5 53.5 1790
      vertex 268.5 1193.5 1790
    endloop
  endfacet
  facet normal 1 -0 0
    outer loop
      vertex 268.5 23.5 1800
      vertex 268.5 53.5 1790
      vertex 268.5 1223.5 1800
    endloop
  endfacet
  facet normal 1 0 0
    outer loop
      vertex 268.5 53.5 1790
      vertex 268.5 23.5 1800
      vertex 268.5 23.5 1790
    endloop
  endfacet
  facet normal -1 0 0
    outer loop
      vertex 218.5 1193.5 1790
      vertex 218.5 1223.5 1800
      vertex 218.5 1223.5 1790
    endloop
  endfacet
  facet normal -1 0 0
    outer loop
      vertex 218.5 53.5 1790
      vertex 218.5 1223.5 1800
      vertex 218.5 1193.5 1790
    endloop
  endfacet
  facet normal -1 0 0
    outer loop
      vertex 218.5 23.5 1800
      vertex 218.5 53.5 1790
      vertex 218.5 23.5 1790
    endloop
  endfacet
  facet normal -1 0 0
    outer loop
      vertex 218.5 53.5 1790
      vertex 218.5 23.5 1800
      vertex 218.5 1223.5 1800
    endloop
  endfacet
  facet normal 1 0 0
    outer loop
      vertex 463.5 1223.5 1800
      vertex 463.5 1193.5 1790
      vertex 463.5 1223.5 1790
    endloop
  endfacet
  facet normal 1 0 0
    outer loop
      vertex 463.5 1223.5 1800
      vertex 463.5 53.5 1790
      vertex 463.5 1193.5 1790
    endloop
  endfacet
  facet normal 1 -0 0
    outer loop
      vertex 463.5 23.5 1800
      vertex 463.5 53.5 1790
      vertex 463.5 1223.5 1800
    endloop
  endfacet
  facet normal 1 0 0
    outer loop
      vertex 463.5 53.5 1790
      vertex 463.5 23.5 1800
      vertex 463.5 23.5 1790
    endloop
  endfacet
  facet normal -1 0 0
    outer loop
      vertex 413.5 1193.5 1790
      vertex 413.5 1223.5 1800
      vertex 413.5 1223.5 1790
    endloop
  endfacet
  facet normal -1 0 0
    outer loop
      vertex 413.5 53.5 1790
      vertex 413.5 1223.5 1800
      vertex 413.5 1193.5 1790
    endloop
  endfacet
  facet normal -1 0 0
    outer loop
      vertex 413.5 23.5 1800
      vertex 413.5 53.5 1790
      vertex 413.5 23.5 1790
    endloop
  endfacet
  facet normal -1 0 0
    outer loop
      vertex 413.5 53.5 1790
      vertex 413.5 23.5 1800
      vertex 413.5 1223.5 1800
    endloop
  endfacet
  facet normal 1 0 0
    outer loop
      vertex 658.5 1223.5 1800
      vertex 658.5 1193.5 1790
      vertex 658.5 1223.5 1790
    endloop
  endfacet
  facet normal 1 0 0
    outer loop
      vertex 658.5 1223.5 1800
      vertex 658.5 53.5 1790
      vertex 658.5 1193.5 1790
    endloop
  endfacet
  facet normal 1 -0 0
    outer loop
      vertex 658.5 23.5 1800
      vertex 658.5 53.5 1790
      vertex 658.5 1223.5 1800
    endloop
  endfacet
  facet normal 1 0 0
    outer loop
      vertex 658.5 53.5 1790
      vertex 658.5 23.5 1800
      vertex 658.5 23.5 1790
    endloop
  endfacet
  facet normal -1 0 0
    outer loop
      vertex 608.5 1193.5 1790
      vertex 608.5 1223.5 1800
      vertex 608.5 1223.5 1790
    endloop
  endfacet
  facet normal -1 0 0
    outer loop
      vertex 608.5 53.5 1790
      vertex 608.5 1223.5 1800
      vertex 608.5 1193.5 1790
    endloop
  endfacet
  facet normal -1 0 0
    outer loop
      vertex 608.5 23.5 1800
      vertex 608.5 53.5 1790
      vertex 608.5 23.5 1790
    endloop
  endfacet
  facet normal -1 0 0
    outer loop
      vertex 608.5 53.5 1790
      vertex 608.5 23.5 1800
      vertex 608.5 1223.5 1800
    endloop
  endfacet
  facet normal 1 0 0
    outer loop
      vertex 853.5 1223.5 1800
      vertex 853.5 1193.5 1790
      vertex 853.5 1223.5 1790
    endloop
  endfacet
  facet normal 1 0 0
    outer loop
      vertex 853.5 1223.5 1800
      vertex 853.5 53.5 1790
      vertex 853.5 1193.5 1790
    endloop
  endfacet
  facet normal 1 -0 0
    outer loop
      vertex 853.5 23.5 1800
      vertex 853.5 53.5 1790
      vertex 853.5 1223.5 1800
    endloop
  endfacet
  facet normal 1 0 0
    outer loop
      vertex 853.5 53.5 1790
      vertex 853.5 23.5 1800
      vertex 853.5 23.5 1790
    endloop
  endfacet
  facet normal -1 0 0
    outer loop
      vertex 803.5 1193.5 1790
      vertex 803.5 1223.5 1800
      vertex 803.5 1223.5 1790
    endloop
  endfacet
  facet normal -1 0 0
    outer loop
      vertex 803.5 53.5 1790
      vertex 803.5 1223.5 1800
      vertex 803.5 1193.5 1790
    endloop
  endfacet
  facet normal -1 0 0
    outer loop
      vertex 803.5 23.5 1800
      vertex 803.5 53.5 1790
      vertex 803.5 23.5 1790
    endloop
  endfacet
  facet normal -1 0 0
    outer loop
      vertex 803.5 53.5 1790
      vertex 803.5 23.5 1800
      vertex 803.5 1223.5 1800
    endloop
  endfacet
  facet normal 1 0 0
    outer loop
      vertex 1048.5 1223.5 1800
      vertex 1048.5 1193.5 1790
      vertex 1048.5 1223.5 1790
    endloop
  endfacet
  facet normal 1 0 0
    outer loop
      vertex 1048.5 1223.5 1800
      vertex 1048.5 53.5 1790
      vertex 1048.5 1193.5 1790
    endloop
  endfacet
  facet normal 1 -0 0
    outer loop
      vertex 1048.5 23.5 1800
      vertex 1048.5 53.5 1790
      vertex 1048.5 1223.5 1800
    endloop
  endfacet
  facet normal 1 0 0
    outer loop
      vertex 1048.5 53.5 1790
      vertex 1048.5 23.5 1800
      vertex 1048.5 23.5 1790
    endloop
  endfacet
  facet normal -1 0 0
    outer loop
      vertex 998.5 1193.5 1790
      vertex 998.5 1223.5 1800
      vertex 998.5 1223.5 1790
    endloop
  endfacet
  facet normal -1 0 0
    outer loop
      vertex 998.5 53.5 1790
      vertex 998.5 1223.5 1800
      vertex 998.5 1193.5 1790
    endloop
  endfacet
  facet normal -1 0 0
    outer loop
      vertex 998.5 23.5 1800
      vertex 998.5 53.5 1790
      vertex 998.5 23.5 1790
    endloop
  endfacet
  facet normal -1 0 0
    outer loop
      vertex 998.5 53.5 1790
      vertex 998.5 23.5 1800
      vertex 998.5 1223.5 1800
    endloop
  endfacet
  facet normal 1 0 0
    outer loop
      vertex 1243.5 1223.5 1800
      vertex 1243.5 1193.5 1790
      vertex 1243.5 1223.5 1790
    endloop
  endfacet
  facet normal 1 0 0
    outer loop
      vertex 1243.5 1223.5 1800
      vertex 1243.5 53.5 1790
      vertex 1243.5 1193.5 1790
    endloop
  endfacet
  facet normal 1 -0 0
    outer loop
      vertex 1243.5 23.5 1800
      vertex 1243.5 53.5 1790
      vertex 1243.5 1223.5 1800
    endloop
  endfacet
  facet normal 1 0 0
    outer loop
      vertex 1243.5 53.5 1790
      vertex 1243.5 23.5 1800
      vertex 1243.5 23.5 1790
    endloop
  endfacet
  facet normal -1 0 0
    outer loop
      vertex 1193.5 1193.5 1790
      vertex 1193.5 1223.5 1800
      vertex 1193.5 1223.5 1790
    endloop
  endfacet
  facet normal -1 0 0
    outer loop
      vertex 1193.5 53.5 1790
      vertex 1193.5 1223.5 1800
      vertex 1193.5 1193.5 1790
    endloop
  endfacet
  facet normal -1 0 0
    outer loop
      vertex 1193.5 23.5 1800
      vertex 1193.5 53.5 1790
      vertex 1193.5 23.5 1790
    endloop
  endfacet
  facet normal -1 0 0
    outer loop
      vertex 1193.5 53.5 1790
      vertex 1193.5 23.5 1800
      vertex 1193.5 1223.5 1800
    endloop
  endfacet
  facet normal 1 0 0
    outer loop
      vertex 1438.5 1223.5 1800
      vertex 1438.5 1193.5 1790
      vertex 1438.5 1223.5 1790
    endloop
  endfacet
  facet normal 1 0 0
    outer loop
      vertex 1438.5 1223.5 1800
      vertex 1438.5 53.5 1790
      vertex 1438.5 1193.5 1790
    endloop
  endfacet
  facet normal 1 -0 0
    outer loop
      vertex 1438.5 23.5 1800
      vertex 1438.5 53.5 1790
      vertex 1438.5 1223.5 1800
    endloop
  endfacet
  facet normal 1 0 0
    outer loop
      vertex 1438.5 53.5 1790
      vertex 1438.5 23.5 1800
      vertex 1438.5 23.5 1790
    endloop
  endfacet
  facet normal -1 0 0
    outer loop
      vertex 1388.5 1193.5 1790
      vertex 1388.5 1223.5 1800
      vertex 1388.5 1223.5 1790
    endloop
  endfacet
  facet normal -1 0 0
    outer loop
      vertex 1388.5 53.5 1790
      vertex 1388.5 1223.5 1800
      vertex 1388.5 1193.5 1790
    endloop
  endfacet
  facet normal -1 0 0
    outer loop
      vertex 1388.5 23.5 1800
      vertex 1388.5 53.5 1790
      vertex 1388.5 23.5 1790
    endloop
  endfacet
  facet normal -1 0 0
    outer loop
      vertex 1388.5 53.5 1790
      vertex 1388.5 23.5 1800
      vertex 1388.5 1223.5 1800
    endloop
  endfacet
  facet normal 1 0 0
    outer loop
      vertex 1633.5 1223.5 1800
      vertex 1633.5 1193.5 1790
      vertex 1633.5 1223.5 1790
    endloop
  endfacet
  facet normal 1 0 0
    outer loop
      vertex 1633.5 1223.5 1800
      vertex 1633.5 53.5 1790
      vertex 1633.5 1193.5 1790
    endloop
  endfacet
  facet normal 1 -0 0
    outer loop
      vertex 1633.5 23.5 1800
      vertex 1633.5 53.5 1790
      vertex 1633.5 1223.5 1800
    endloop
  endfacet
  facet normal 1 0 0
    outer loop
      vertex 1633.5 53.5 1790
      vertex 1633.5 23.5 1800
      vertex 1633.5 23.5 1790
    endloop
  endfacet
  facet normal -1 0 0
    outer loop
      vertex 1583.5 1193.5 1790
      vertex 1583.5 1223.5 1800
      vertex 1583.5 1223.5 1790
    endloop
  endfacet
  facet normal -1 0 0
    outer loop
      vertex 1583.5 53.5 1790
      vertex 1583.5 1223.5 1800
      vertex 1583.5 1193.5 1790
    endloop
  endfacet
  facet normal -1 0 0
    outer loop
      vertex 1583.5 23.5 1800
      vertex 1583.5 53.5 1790
      vertex 1583.5 23.5 1790
    endloop
  endfacet
  facet normal -1 0 0
    outer loop
      vertex 1583.5 53.5 1790
      vertex 1583.5 23.5 1800
      vertex 1583.5 1223.5 1800
    endloop
  endfacet
  facet normal 1 0 0
    outer loop
      vertex 1828.5 1223.5 1800
      vertex 1828.5 1193.5 1790
      vertex 1828.5 1223.5 1790
    endloop
  endfacet
  facet normal 1 0 0
    outer loop
      vertex 1828.5 1223.5 1800
      vertex 1828.5 53.5 1790
      vertex 1828.5 1193.5 1790
    endloop
  endfacet
  facet normal 1 -0 0
    outer loop
      vertex 1828.5 23.5 1800
      vertex 1828.5 53.5 1790
      vertex 1828.5 1223.5 1800
    endloop
  endfacet
  facet normal 1 0 0
    outer loop
      vertex 1828.5 53.5 1790
      vertex 1828.5 23.5 1800
      vertex 1828.5 23.5 1790
    endloop
  endfacet
  facet normal -1 0 0
    outer loop
      vertex 1778.5 1193.5 1790
      vertex 1778.5 1223.5 1800
      vertex 1778.5 1223.5 1790
    endloop
  endfacet
  facet normal -1 0 0
    outer loop
      vertex 1778.5 53.5 1790
      vertex 1778.5 1223.5 1800
      vertex 1778.5 1193.5 1790
    endloop
  endfacet
  facet normal -1 0 0
    outer loop
      vertex 1778.5 23.5 1800
      vertex 1778.5 53.5 1790
      vertex 1778.5 23.5 1790
    endloop
  endfacet
  facet normal -1 0 0
    outer loop
      vertex 1778.5 53.5 1790
      vertex 1778.5 23.5 1800
      vertex 1778.5 1223.5 1800
    endloop
  endfacet
  facet normal 1 0 0
    outer loop
      vertex 2023.5 1223.5 2000
      vertex 2023.5 1193.5 1790
      vertex 2023.5 1223.5 1730
    endloop
  endfacet
  facet normal 1 0 0
    outer loop
      vertex 2023.5 1223.5 2000
      vertex 2023.5 53.5 1790
      vertex 2023.5 1193.5 1790
    endloop
  endfacet
  facet normal 1 -0 0
    outer loop
      vertex 2023.5 23.5 2000
      vertex 2023.5 53.5 1790
      vertex 2023.5 1223.5 2000
    endloop
  endfacet
  facet normal 1 0 0
    outer loop
      vertex 2023.5 23.5 1730
      vertex 2023.5 53.5 1790
      vertex 2023.5 23.5 2000
    endloop
  endfacet
  facet normal 1 0 0
    outer loop
      vertex 2023.5 53.5 1790
      vertex 2023.5 23.5 1730
      vertex 2023.5 53.5 1730
    endloop
  endfacet
  facet normal 1 0 0
    outer loop
      vertex 2023.5 1223.5 1730
      vertex 2023.5 1193.5 1790
      vertex 2023.5 1193.5 1730
    endloop
  endfacet
  facet normal -1 0 0
    outer loop
      vertex 1973.5 1193.5 1790
      vertex 1973.5 1223.5 1800
      vertex 1973.5 1223.5 1790
    endloop
  endfacet
  facet normal -1 0 0
    outer loop
      vertex 1973.5 53.5 1790
      vertex 1973.5 1223.5 1800
      vertex 1973.5 1193.5 1790
    endloop
  endfacet
  facet normal -1 0 0
    outer loop
      vertex 1973.5 23.5 1800
      vertex 1973.5 53.5 1790
      vertex 1973.5 23.5 1790
    endloop
  endfacet
  facet normal -1 0 0
    outer loop
      vertex 1973.5 53.5 1790
      vertex 1973.5 23.5 1800
      vertex 1973.5 1223.5 1800
    endloop
  endfacet
  facet normal 0 1 -0
    outer loop
      vertex 2023.5 53.5 1730
      vertex 1973.5 53.5 1790
      vertex 2023.5 53.5 1790
    endloop
  endfacet
  facet normal 0 1 0
    outer loop
      vertex 1973.5 53.5 1790
      vertex 2023.5 53.5 1730
      vertex 1828.5 53.5 1790
    endloop
  endfacet
  facet normal 0 1 0
    outer loop
      vertex 1828.5 53.5 1790
      vertex 2023.5 53.5 1730
      vertex 1778.5 53.5 1790
    endloop
  endfacet
  facet normal 0 1 0
    outer loop
      vertex 1778.5 53.5 1790
      vertex 2023.5 53.5 1730
      vertex 1633.5 53.5 1790
    endloop
  endfacet
  facet normal 0 1 0
    outer loop
      vertex 1633.5 53.5 1790
      vertex 2023.5 53.5 1730
      vertex 1583.5 53.5 1790
    endloop
  endfacet
  facet normal 0 1 0
    outer loop
      vertex 1583.5 53.5 1790
      vertex 2023.5 53.5 1730
      vertex 1438.5 53.5 1790
    endloop
  endfacet
  facet normal 0 1 0
    outer loop
      vertex 1438.5 53.5 1790
      vertex 2023.5 53.5 1730
      vertex 1388.5 53.5 1790
    endloop
  endfacet
  facet normal 0 1 0
    outer loop
      vertex 1388.5 53.5 1790
      vertex 2023.5 53.5 1730
      vertex 1243.5 53.5 1790
    endloop
  endfacet
  facet normal 0 1 0
    outer loop
      vertex 1243.5 53.5 1790
      vertex 2023.5 53.5 1730
      vertex 1193.5 53.5 1790
    endloop
  endfacet
  facet normal 0 1 0
    outer loop
      vertex 1193.5 53.5 1790
      vertex 2023.5 53.5 1730
      vertex 1048.5 53.5 1790
    endloop
  endfacet
  facet normal 0 1 0
    outer loop
      vertex 1048.5 53.5 1790
      vertex 2023.5 53.5 1730
      vertex 998.5 53.5 1790
    endloop
  endfacet
  facet normal 0 1 0
    outer loop
      vertex 23.5 53.5 1730
      vertex 998.5 53.5 1790
      vertex 2023.5 53.5 1730
    endloop
  endfacet
  facet normal 0 1 0
    outer loop
      vertex 998.5 53.5 1790
      vertex 23.5 53.5 1730
      vertex 853.5 53.5 1790
    endloop
  endfacet
  facet normal 0 1 0
    outer loop
      vertex 853.5 53.5 1790
      vertex 23.5 53.5 1730
      vertex 803.5 53.5 1790
    endloop
  endfacet
  facet normal 0 1 0
    outer loop
      vertex 803.5 53.5 1790
      vertex 23.5 53.5 1730
      vertex 658.5 53.5 1790
    endloop
  endfacet
  facet normal 0 1 0
    outer loop
      vertex 658.5 53.5 1790
      vertex 23.5 53.5 1730
      vertex 608.5 53.5 1790
    endloop
  endfacet
  facet normal 0 1 0
    outer loop
      vertex 608.5 53.5 1790
      vertex 23.5 53.5 1730
      vertex 463.5 53.5 1790
    endloop
  endfacet
  facet normal 0 1 0
    outer loop
      vertex 463.5 53.5 1790
      vertex 23.5 53.5 1730
      vertex 413.5 53.5 1790
    endloop
  endfacet
  facet normal 0 1 0
    outer loop
      vertex 413.5 53.5 1790
      vertex 23.5 53.5 1730
      vertex 268.5 53.5 1790
    endloop
  endfacet
  facet normal 0 1 0
    outer loop
      vertex 268.5 53.5 1790
      vertex 23.5 53.5 1730
      vertex 218.5 53.5 1790
    endloop
  endfacet
  facet normal 0 1 0
    outer loop
      vertex 218.5 53.5 1790
      vertex 23.5 53.5 1730
      vertex 73.5 53.5 1790
    endloop
  endfacet
  facet normal 0 1 0
    outer loop
      vertex 73.5 53.5 1790
      vertex 23.5 53.5 1730
      vertex 23.5 53.5 1790
    endloop
  endfacet
  facet normal 0 -1 0
    outer loop
      vertex 23.5 1193.5 1730
      vertex 73.5 1193.5 1790
      vertex 23.5 1193.5 1790
    endloop
  endfacet
  facet normal 0 -1 -0
    outer loop
      vertex 73.5 1193.5 1790
      vertex 23.5 1193.5 1730
      vertex 218.5 1193.5 1790
    endloop
  endfacet
  facet normal 0 -1 -0
    outer loop
      vertex 218.5 1193.5 1790
      vertex 23.5 1193.5 1730
      vertex 268.5 1193.5 1790
    endloop
  endfacet
  facet normal 0 -1 -0
    outer loop
      vertex 268.5 1193.5 1790
      vertex 23.5 1193.5 1730
      vertex 413.5 1193.5 1790
    endloop
  endfacet
  facet normal 0 -1 -0
    outer loop
      vertex 413.5 1193.5 1790
      vertex 23.5 1193.5 1730
      vertex 463.5 1193.5 1790
    endloop
  endfacet
  facet normal 0 -1 -0
    outer loop
      vertex 463.5 1193.5 1790
      vertex 23.5 1193.5 1730
      vertex 608.5 1193.5 1790
    endloop
  endfacet
  facet normal 0 -1 -0
    outer loop
      vertex 608.5 1193.5 1790
      vertex 23.5 1193.5 1730
      vertex 658.5 1193.5 1790
    endloop
  endfacet
  facet normal 0 -1 -0
    outer loop
      vertex 658.5 1193.5 1790
      vertex 23.5 1193.5 1730
      vertex 803.5 1193.5 1790
    endloop
  endfacet
  facet normal 0 -1 -0
    outer loop
      vertex 803.5 1193.5 1790
      vertex 23.5 1193.5 1730
      vertex 853.5 1193.5 1790
    endloop
  endfacet
  facet normal 0 -1 -0
    outer loop
      vertex 853.5 1193.5 1790
      vertex 23.5 1193.5 1730
      vertex 998.5 1193.5 1790
    endloop
  endfacet
  facet normal 0 -1 -0
    outer loop
      vertex 998.5 1193.5 1790
      vertex 23.5 1193.5 1730
      vertex 1048.5 1193.5 1790
    endloop
  endfacet
  facet normal 0 -1 0
    outer loop
      vertex 2023.5 1193.5 1730
      vertex 1048.5 1193.5 1790
      vertex 23.5 1193.5 1730
    endloop
  endfacet
  facet normal 0 -1 0
    outer loop
      vertex 1048.5 1193.5 1790
      vertex 2023.5 1193.5 1730
      vertex 1193.5 1193.5 1790
    endloop
  endfacet
  facet normal 0 -1 0
    outer loop
      vertex 1193.5 1193.5 1790
      vertex 2023.5 1193.5 1730
      vertex 1243.5 1193.5 1790
    endloop
  endfacet
  facet normal 0 -1 0
    outer loop
      vertex 1243.5 1193.5 1790
      vertex 2023.5 1193.5 1730
      vertex 1388.5 1193.5 1790
    endloop
  endfacet
  facet normal 0 -1 0
    outer loop
      vertex 1388.5 1193.5 1790
      vertex 2023.5 1193.5 1730
      vertex 1438.5 1193.5 1790
    endloop
  endfacet
  facet normal 0 -1 0
    outer loop
      vertex 1438.5 1193.5 1790
      vertex 2023.5 1193.5 1730
      vertex 1583.5 1193.5 1790
    endloop
  endfacet
  facet normal 0 -1 0
    outer loop
      vertex 1583.5 1193.5 1790
      vertex 2023.5 1193.5 1730
      vertex 1633.5 1193.5 1790
    endloop
  endfacet
  facet normal 0 -1 0
    outer loop
      vertex 1633.5 1193.5 1790
      vertex 2023.5 1193.5 1730
      vertex 1778.5 1193.5 1790
    endloop
  endfacet
  facet normal 0 -1 0
    outer loop
      vertex 1778.5 1193.5 1790
      vertex 2023.5 1193.5 1730
      vertex 1828.5 1193.5 1790
    endloop
  endfacet
  facet normal 0 -1 0
    outer loop
      vertex 1828.5 1193.5 1790
      vertex 2023.5 1193.5 1730
      vertex 1973.5 1193.5 1790
    endloop
  endfacet
  facet normal 0 -1 0
    outer loop
      vertex 1973.5 1193.5 1790
      vertex 2023.5 1193.5 1730
      vertex 2023.5 1193.5 1790
    endloop
  endfacet
  facet normal -0 0 1
    outer loop
      vertex 23.5 1223.5 2000
      vertex 2023.5 23.5 2000
      vertex 2023.5 1223.5 2000
    endloop
  endfacet
  facet normal 0 0 1
    outer loop
      vertex 2023.5 23.5 2000
      vertex 23.5 1223.5 2000
      vertex 23.5 23.5 2000
    endloop
  endfacet
  facet normal 1 0 0
    outer loop
      vertex 2047 1247 2260
      vertex 2047 1226 1700
      vertex 2047 1247 1690
    endloop
  endfacet
  facet normal 1 0 0
    outer loop
      vertex 2047 1247 2260
      vertex 2047 1126 1730
      vertex 2047 1226 1700
    endloop
  endfacet
  facet normal 1 0 0
    outer loop
      vertex 2047 1247 2260
      vertex 2047 121 1730
      vertex 2047 1126 1730
    endloop
  endfacet
  facet normal 1 0 0
    outer loop
      vertex 2047 121 1730
      vertex 2047 21 1700
      vertex 2047 121 1700
    endloop
  endfacet
  facet normal 1 -0 0
    outer loop
      vertex 2047 0 2260
      vertex 2047 121 1730
      vertex 2047 1247 2260
    endloop
  endfacet
  facet normal 1 0 0
    outer loop
      vertex 2047 121 1730
      vertex 2047 0 2260
      vertex 2047 21 1700
    endloop
  endfacet
  facet normal 1 0 0
    outer loop
      vertex 2047 0 1690
      vertex 2047 21 1700
      vertex 2047 0 2260
    endloop
  endfacet
  facet normal 1 0 0
    outer loop
      vertex 2047 21 1700
      vertex 2047 0 1690
      vertex 2047 21 1690
    endloop
  endfacet
  facet normal 1 0 0
    outer loop
      vertex 2047 1247 1690
      vertex 2047 1226 1700
      vertex 2047 1226 1690
    endloop
  endfacet
  facet normal 1 0 0
    outer loop
      vertex 2047 1226 1700
      vertex 2047 1126 1730
      vertex 2047 1126 1700
    endloop
  endfacet
  facet normal 0 0 1
    outer loop
      vertex 2023.5 1193.5 1730
      vertex 2026 1226 1730
      vertex 2023.5 1223.5 1730
    endloop
  endfacet
  facet normal 0 0 1
    outer loop
      vertex 2026 1226 1730
      vertex 23.5 1223.5 1730
      vertex 2023.5 1223.5 1730
    endloop
  endfacet
  facet normal 0 0 1
    outer loop
      vertex 23.5 1223.5 1730
      vertex 21 1226 1730
      vertex 23.5 1193.5 1730
    endloop
  endfacet
  facet normal -0 0 1
    outer loop
      vertex 21 1226 1730
      vertex 23.5 1223.5 1730
      vertex 2026 1226 1730
    endloop
  endfacet
  facet normal 0 0 1
    outer loop
      vertex 2026 1226 1730
      vertex 2023.5 1193.5 1730
      vertex 2026 1126 1730
    endloop
  endfacet
  facet normal -0 0 1
    outer loop
      vertex 23.5 1193.5 1730
      vertex 2026 1126 1730
      vertex 2023.5 1193.5 1730
    endloop
  endfacet
  facet normal 0 0 1
    outer loop
      vertex 23.5 1193.5 1730
      vertex 21 1126 1730
      vertex 2026 1126 1730
    endloop
  endfacet
  facet normal 0 0 1
    outer loop
      vertex 21 1126 1730
      vertex 23.5 1193.5 1730
      vertex 21 1226 1730
    endloop
  endfacet
  facet normal 0 0 1
    outer loop
      vertex 2026 121 1730
      vertex 2023.5 53.5 1730
      vertex 2026 21 1730
    endloop
  endfacet
  facet normal 0 0 1
    outer loop
      vertex 2026 121 1730
      vertex 23.5 53.5 1730
      vertex 2023.5 53.5 1730
    endloop
  endfacet
  facet normal 0 0 1
    outer loop
      vertex 21 21 1730
      vertex 23.5 53.5 1730
      vertex 21 121 1730
    endloop
  endfacet
  facet normal -0 0 1
    outer loop
      vertex 21 121 1730
      vertex 23.5 53.5 1730
      vertex 2026 121 1730
    endloop
  endfacet
  facet normal -0 0 1
    outer loop
      vertex 2023.5 23.5 1730
      vertex 2026 21 1730
      vertex 2023.5 53.5 1730
    endloop
  endfacet
  facet normal -0 0 1
    outer loop
      vertex 23.5 23.5 1730
      vertex 2026 21 1730
      vertex 2023.5 23.5 1730
    endloop
  endfacet
  facet normal 0 0 1
    outer loop
      vertex 23.5 23.5 1730
      vertex 21 21 1730
      vertex 2026 21 1730
    endloop
  endfacet
  facet normal 0 0 1
    outer loop
      vertex 23.5 53.5 1730
      vertex 21 21 1730
      vertex 23.5 23.5 1730
    endloop
  endfacet
  facet normal 0 0 -1
    outer loop
      vertex 0 121 1730
      vertex 21 1126 1730
      vertex 21 121 1730
    endloop
  endfacet
  facet normal -0 0 -1
    outer loop
      vertex 21 1126 1730
      vertex 0 121 1730
      vertex 0 1126 1730
    endloop
  endfacet
  facet normal 0 0 -1
    outer loop
      vertex 2026 121 1730
      vertex 2047 1126 1730
      vertex 2047 121 1730
    endloop
  endfacet
  facet normal -0 0 -1
    outer loop
      vertex 2047 1126 1730
      vertex 2026 121 1730
      vertex 2026 1126 1730
    endloop
  endfacet
  facet normal 0 0 -1
    outer loop
      vertex 0 21 1700
      vertex 2047 121 1700
      vertex 2047 21 1700
    endloop
  endfacet
  facet normal -0 0 -1
    outer loop
      vertex 2047 121 1700
      vertex 0 21 1700
      vertex 0 121 1700
    endloop
  endfacet
  facet normal -1 0 0
    outer loop
      vertex 0 21 1690
      vertex 0 0 1690
      vertex 0 21 1700
    endloop
  endfacet
  facet normal -1 0 0
    outer loop
      vertex 0 121 1700
      vertex 0 21 1700
      vertex 0 121 1730
    endloop
  endfacet
  facet normal -1 0 0
    outer loop
      vertex 0 1226 1700
      vertex 0 1247 1690
      vertex 0 1226 1690
    endloop
  endfacet
  facet normal -1 0 0
    outer loop
      vertex 0 1247 1690
      vertex 0 1226 1700
      vertex 0 1247 2260
    endloop
  endfacet
  facet normal -1 0 0
    outer loop
      vertex 0 1126 1730
      vertex 0 1226 1700
      vertex 0 1126 1700
    endloop
  endfacet
  facet normal -1 0 0
    outer loop
      vertex 0 1226 1700
      vertex 0 1126 1730
      vertex 0 1247 2260
    endloop
  endfacet
  facet normal -1 0 0
    outer loop
      vertex 0 121 1730
      vertex 0 1247 2260
      vertex 0 1126 1730
    endloop
  endfacet
  facet normal -1 0 0
    outer loop
      vertex 0 0 2260
      vertex 0 121 1730
      vertex 0 21 1700
    endloop
  endfacet
  facet normal -1 0 0
    outer loop
      vertex 0 121 1730
      vertex 0 0 2260
      vertex 0 1247 2260
    endloop
  endfacet
  facet normal -1 0 0
    outer loop
      vertex 0 0 2260
      vertex 0 21 1700
      vertex 0 0 1690
    endloop
  endfacet
  facet normal 0 1 -0
    outer loop
      vertex 2047 121 1700
      vertex 2026 121 1730
      vertex 2047 121 1730
    endloop
  endfacet
  facet normal 0 1 0
    outer loop
      vertex 2026 121 1730
      vertex 2047 121 1700
      vertex 21 121 1730
    endloop
  endfacet
  facet normal 0 1 0
    outer loop
      vertex 0 121 1700
      vertex 21 121 1730
      vertex 2047 121 1700
    endloop
  endfacet
  facet normal 0 1 0
    outer loop
      vertex 21 121 1730
      vertex 0 121 1700
      vertex 0 121 1730
    endloop
  endfacet
  facet normal 0 1 0
    outer loop
      vertex 2026 21 2260
      vertex 1997 21 2060
      vertex 1997 21 2260
    endloop
  endfacet
  facet normal 0 1 0
    outer loop
      vertex 2026 21 2260
      vertex 1996.8 21 2053.72
      vertex 1997 21 2060
    endloop
  endfacet
  facet normal 0 1 -0
    outer loop
      vertex 2026 21 1730
      vertex 1996.8 21 2053.72
      vertex 2026 21 2260
    endloop
  endfacet
  facet normal 0 1 0
    outer loop
      vertex 1897 21 1960
      vertex 2026 21 1730
      vertex 1597 21 1960
    endloop
  endfacet
  facet normal 0 1 0
    outer loop
      vertex 1903.28 21 1960.2
      vertex 2026 21 1730
      vertex 1897 21 1960
    endloop
  endfacet
  facet normal 0 1 0
    outer loop
      vertex 1909.53 21 1960.79
      vertex 2026 21 1730
      vertex 1903.28 21 1960.2
    endloop
  endfacet
  facet normal 0 1 0
    outer loop
      vertex 1915.74 21 1961.77
      vertex 2026 21 1730
      vertex 1909.53 21 1960.79
    endloop
  endfacet
  facet normal 0 1 0
    outer loop
      vertex 1921.87 21 1963.14
      vertex 2026 21 1730
      vertex 1915.74 21 1961.77
    endloop
  endfacet
  facet normal 0 1 0
    outer loop
      vertex 1927.9 21 1964.89
      vertex 2026 21 1730
      vertex 1921.87 21 1963.14
    endloop
  endfacet
  facet normal 0 1 0
    outer loop
      vertex 1933.81 21 1967.02
      vertex 2026 21 1730
      vertex 1927.9 21 1964.89
    endloop
  endfacet
  facet normal 0 1 0
    outer loop
      vertex 1939.58 21 1969.52
      vertex 2026 21 1730
      vertex 1933.81 21 1967.02
    endloop
  endfacet
  facet normal 0 1 0
    outer loop
      vertex 1945.18 21 1972.37
      vertex 2026 21 1730
      vertex 1939.58 21 1969.52
    endloop
  endfacet
  facet normal 0 1 0
    outer loop
      vertex 1950.58 21 1975.57
      vertex 2026 21 1730
      vertex 1945.18 21 1972.37
    endloop
  endfacet
  facet normal 0 1 0
    outer loop
      vertex 1955.78 21 1979.1
      vertex 2026 21 1730
      vertex 1950.58 21 1975.57
    endloop
  endfacet
  facet normal 0 1 0
    outer loop
      vertex 1960.74 21 1982.95
      vertex 2026 21 1730
      vertex 1955.78 21 1979.1
    endloop
  endfacet
  facet normal 0 1 0
    outer loop
      vertex 1965.45 21 1987.1
      vertex 2026 21 1730
      vertex 1960.74 21 1982.95
    endloop
  endfacet
  facet normal 0 1 0
    outer loop
      vertex 1969.9 21 1991.55
      vertex 2026 21 1730
      vertex 1965.45 21 1987.1
    endloop
  endfacet
  facet normal 0 1 0
    outer loop
      vertex 1974.05 21 1996.26
      vertex 2026 21 1730
      vertex 1969.9 21 1991.55
    endloop
  endfacet
  facet normal 0 1 0
    outer loop
      vertex 1977.9 21 2001.22
      vertex 2026 21 1730
      vertex 1974.05 21 1996.26
    endloop
  endfacet
  facet normal 0 1 0
    outer loop
      vertex 1981.43 21 2006.42
      vertex 2026 21 1730
      vertex 1977.9 21 2001.22
    endloop
  endfacet
  facet normal 0 1 0
    outer loop
      vertex 1984.63 21 2011.82
      vertex 2026 21 1730
      vertex 1981.43 21 2006.42
    endloop
  endfacet
  facet normal 0 1 0
    outer loop
      vertex 1987.48 21 2017.42
      vertex 2026 21 1730
      vertex 1984.63 21 2011.82
    endloop
  endfacet
  facet normal 0 1 0
    outer loop
      vertex 1989.98 21 2023.19
      vertex 2026 21 1730
      vertex 1987.48 21 2017.42
    endloop
  endfacet
  facet normal 0 1 0
    outer loop
      vertex 1992.11 21 2029.1
      vertex 2026 21 1730
      vertex 1989.98 21 2023.19
    endloop
  endfacet
  facet normal 0 1 0
    outer loop
      vertex 1993.86 21 2035.13
      vertex 2026 21 1730
      vertex 1992.11 21 2029.1
    endloop
  endfacet
  facet normal 0 1 0
    outer loop
      vertex 1995.23 21 2041.26
      vertex 2026 21 1730
      vertex 1993.86 21 2035.13
    endloop
  endfacet
  facet normal 0 1 0
    outer loop
      vertex 1996.21 21 2047.47
      vertex 2026 21 1730
      vertex 1995.23 21 2041.26
    endloop
  endfacet
  facet normal 0 1 0
    outer loop
      vertex 1996.8 21 2053.72
      vertex 2026 21 1730
      vertex 1996.21 21 2047.47
    endloop
  endfacet
  facet normal 0 1 -0
    outer loop
      vertex 1497 21 2060
      vertex 21 21 2260
      vertex 1497 21 2260
    endloop
  endfacet
  facet normal 0 1 0
    outer loop
      vertex 1497.2 21 2053.72
      vertex 21 21 2260
      vertex 1497 21 2060
    endloop
  endfacet
  facet normal 0 1 0
    outer loop
      vertex 21 21 1730
      vertex 1497.2 21 2053.72
      vertex 1497.79 21 2047.47
    endloop
  endfacet
  facet normal 0 1 0
    outer loop
      vertex 21 21 1730
      vertex 1497.79 21 2047.47
      vertex 1498.77 21 2041.26
    endloop
  endfacet
  facet normal 0 1 0
    outer loop
      vertex 21 21 1730
      vertex 1498.77 21 2041.26
      vertex 1500.14 21 2035.13
    endloop
  endfacet
  facet normal 0 1 0
    outer loop
      vertex 21 21 1730
      vertex 1500.14 21 2035.13
      vertex 1501.89 21 2029.1
    endloop
  endfacet
  facet normal 0 1 0
    outer loop
      vertex 21 21 1730
      vertex 1501.89 21 2029.1
      vertex 1504.02 21 2023.19
    endloop
  endfacet
  facet normal 0 1 0
    outer loop
      vertex 21 21 1730
      vertex 1504.02 21 2023.19
      vertex 1506.52 21 2017.42
    endloop
  endfacet
  facet normal 0 1 0
    outer loop
      vertex 21 21 1730
      vertex 1506.52 21 2017.42
      vertex 1509.37 21 2011.82
    endloop
  endfacet
  facet normal 0 1 0
    outer loop
      vertex 21 21 1730
      vertex 1509.37 21 2011.82
      vertex 1512.57 21 2006.42
    endloop
  endfacet
  facet normal 0 1 0
    outer loop
      vertex 21 21 1730
      vertex 1512.57 21 2006.42
      vertex 1516.1 21 2001.22
    endloop
  endfacet
  facet normal 0 1 0
    outer loop
      vertex 21 21 1730
      vertex 1516.1 21 2001.22
      vertex 1519.95 21 1996.26
    endloop
  endfacet
  facet normal 0 1 0
    outer loop
      vertex 21 21 1730
      vertex 1519.95 21 1996.26
      vertex 1524.1 21 1991.55
    endloop
  endfacet
  facet normal 0 1 0
    outer loop
      vertex 21 21 1730
      vertex 1524.1 21 1991.55
      vertex 1528.55 21 1987.1
    endloop
  endfacet
  facet normal 0 1 0
    outer loop
      vertex 21 21 1730
      vertex 1528.55 21 1987.1
      vertex 1533.26 21 1982.95
    endloop
  endfacet
  facet normal 0 1 0
    outer loop
      vertex 21 21 1730
      vertex 1533.26 21 1982.95
      vertex 1538.22 21 1979.1
    endloop
  endfacet
  facet normal 0 1 0
    outer loop
      vertex 21 21 1730
      vertex 1538.22 21 1979.1
      vertex 1543.42 21 1975.57
    endloop
  endfacet
  facet normal 0 1 0
    outer loop
      vertex 21 21 1730
      vertex 1543.42 21 1975.57
      vertex 1548.82 21 1972.37
    endloop
  endfacet
  facet normal 0 1 0
    outer loop
      vertex 21 21 1730
      vertex 1548.82 21 1972.37
      vertex 1554.42 21 1969.52
    endloop
  endfacet
  facet normal 0 1 0
    outer loop
      vertex 21 21 1730
      vertex 1554.42 21 1969.52
      vertex 1560.19 21 1967.02
    endloop
  endfacet
  facet normal 0 1 0
    outer loop
      vertex 21 21 1730
      vertex 1560.19 21 1967.02
      vertex 1566.1 21 1964.89
    endloop
  endfacet
  facet normal 0 1 0
    outer loop
      vertex 2026 21 1730
      vertex 1566.1 21 1964.89
      vertex 1572.13 21 1963.14
    endloop
  endfacet
  facet normal 0 1 0
    outer loop
      vertex 2026 21 1730
      vertex 1572.13 21 1963.14
      vertex 1578.26 21 1961.77
    endloop
  endfacet
  facet normal 0 1 0
    outer loop
      vertex 2026 21 1730
      vertex 1590.72 21 1960.2
      vertex 1597 21 1960
    endloop
  endfacet
  facet normal 0 1 0
    outer loop
      vertex 2026 21 1730
      vertex 1584.47 21 1960.79
      vertex 1590.72 21 1960.2
    endloop
  endfacet
  facet normal 0 1 0
    outer loop
      vertex 2026 21 1730
      vertex 1578.26 21 1961.77
      vertex 1584.47 21 1960.79
    endloop
  endfacet
  facet normal 0 1 0
    outer loop
      vertex 1566.1 21 1964.89
      vertex 2026 21 1730
      vertex 21 21 1730
    endloop
  endfacet
  facet normal 0 1 0
    outer loop
      vertex 1497.2 21 2053.72
      vertex 21 21 1730
      vertex 21 21 2260
    endloop
  endfacet
  facet normal 0 1 -0
    outer loop
      vertex 2047 21 1690
      vertex 0 21 1700
      vertex 2047 21 1700
    endloop
  endfacet
  facet normal 0 1 0
    outer loop
      vertex 0 21 1700
      vertex 2047 21 1690
      vertex 0 21 1690
    endloop
  endfacet
  facet normal 0 0 -1
    outer loop
      vertex 0 1126 1700
      vertex 2047 1226 1700
      vertex 2047 1126 1700
    endloop
  endfacet
  facet normal -0 0 -1
    outer loop
      vertex 2047 1226 1700
      vertex 0 1126 1700
      vertex 0 1226 1700
    endloop
  endfacet
  facet normal 0 -1 0
    outer loop
      vertex 0 1226 1690
      vertex 2047 1226 1700
      vertex 0 1226 1700
    endloop
  endfacet
  facet normal 0 -1 -0
    outer loop
      vertex 2047 1226 1700
      vertex 0 1226 1690
      vertex 2047 1226 1690
    endloop
  endfacet
  facet normal 0 -1 0
    outer loop
      vertex 21 1226 1730
      vertex 2026 1226 2260
      vertex 21 1226 2260
    endloop
  endfacet
  facet normal 0 -1 -0
    outer loop
      vertex 2026 1226 2260
      vertex 21 1226 1730
      vertex 2026 1226 1730
    endloop
  endfacet
  facet normal 0 -1 0
    outer loop
      vertex 0 1126 1700
      vertex 21 1126 1730
      vertex 0 1126 1730
    endloop
  endfacet
  facet normal 0 -1 -0
    outer loop
      vertex 21 1126 1730
      vertex 0 1126 1700
      vertex 2026 1126 1730
    endloop
  endfacet
  facet normal 0 -1 0
    outer loop
      vertex 2047 1126 1700
      vertex 2026 1126 1730
      vertex 0 1126 1700
    endloop
  endfacet
  facet normal 0 -1 0
    outer loop
      vertex 2026 1126 1730
      vertex 2047 1126 1700
      vertex 2047 1126 1730
    endloop
  endfacet
  facet normal -1 0 0
    outer loop
      vertex 1997 0 2060
      vertex 1997 21 2260
      vertex 1997 21 2060
    endloop
  endfacet
  facet normal -1 -0 0
    outer loop
      vertex 1997 21 2260
      vertex 1997 0 2060
      vertex 1997 0 2260
    endloop
  endfacet
  facet normal 1 -0 0
    outer loop
      vertex 1497 0 2260
      vertex 1497 21 2060
      vertex 1497 21 2260
    endloop
  endfacet
  facet normal 1 0 0
    outer loop
      vertex 1497 21 2060
      vertex 1497 0 2260
      vertex 1497 0 2060
    endloop
  endfacet
  facet normal -0 0 1
    outer loop
      vertex 1597 21 1960
      vertex 1897 0 1960
      vertex 1897 21 1960
    endloop
  endfacet
  facet normal 0 0 1
    outer loop
      vertex 1897 0 1960
      vertex 1597 21 1960
      vertex 1597 0 1960
    endloop
  endfacet
  facet normal -0.995574 0 0.0939822
    outer loop
      vertex 1996.21 0 2047.47
      vertex 1996.8 21 2053.72
      vertex 1996.21 21 2047.47
    endloop
  endfacet
  facet normal -0.995574 0 0.0939822
    outer loop
      vertex 1996.8 21 2053.72
      vertex 1996.21 0 2047.47
      vertex 1996.8 0 2053.72
    endloop
  endfacet
  facet normal -0.999493 0 0.031831
    outer loop
      vertex 1996.8 0 2053.72
      vertex 1997 21 2060
      vertex 1996.8 21 2053.72
    endloop
  endfacet
  facet normal -0.999493 0 0.031831
    outer loop
      vertex 1997 21 2060
      vertex 1996.8 0 2053.72
      vertex 1997 0 2060
    endloop
  endfacet
  facet normal -0.339058 0 0.940766
    outer loop
      vertex 1927.9 21 1964.89
      vertex 1933.81 0 1967.02
      vertex 1933.81 21 1967.02
    endloop
  endfacet
  facet normal -0.339058 0 0.940766
    outer loop
      vertex 1933.81 0 1967.02
      vertex 1927.9 21 1964.89
      vertex 1927.9 0 1964.89
    endloop
  endfacet
  facet normal -0.917575 0 0.397563
    outer loop
      vertex 1987.48 0 2017.42
      vertex 1989.98 21 2023.19
      vertex 1987.48 21 2017.42
    endloop
  endfacet
  facet normal -0.917575 0 0.397563
    outer loop
      vertex 1989.98 21 2023.19
      vertex 1987.48 0 2017.42
      vertex 1989.98 0 2023.19
    endloop
  endfacet
  facet normal -0.975924 0 0.21811
    outer loop
      vertex 1993.86 0 2035.13
      vertex 1995.23 21 2041.26
      vertex 1993.86 21 2035.13
    endloop
  endfacet
  facet normal -0.975924 0 0.21811
    outer loop
      vertex 1995.23 21 2041.26
      vertex 1993.86 0 2035.13
      vertex 1995.23 0 2041.26
    endloop
  endfacet
  facet normal -0.613168 0 0.789952
    outer loop
      vertex 1955.78 21 1979.1
      vertex 1960.74 0 1982.95
      vertex 1960.74 21 1982.95
    endloop
  endfacet
  facet normal -0.613168 0 0.789952
    outer loop
      vertex 1960.74 0 1982.95
      vertex 1955.78 21 1979.1
      vertex 1955.78 0 1979.1
    endloop
  endfacet
  facet normal -0.789952 0 0.613168
    outer loop
      vertex 1974.05 0 1996.26
      vertex 1977.9 21 2001.22
      vertex 1974.05 21 1996.26
    endloop
  endfacet
  facet normal -0.789952 0 0.613168
    outer loop
      vertex 1977.9 21 2001.22
      vertex 1974.05 0 1996.26
      vertex 1977.9 0 2001.22
    endloop
  endfacet
  facet normal -0.031831 0 0.999493
    outer loop
      vertex 1897 21 1960
      vertex 1903.28 0 1960.2
      vertex 1903.28 21 1960.2
    endloop
  endfacet
  facet normal -0.031831 0 0.999493
    outer loop
      vertex 1903.28 0 1960.2
      vertex 1897 21 1960
      vertex 1897 0 1960
    endloop
  endfacet
  facet normal -0.453568 0 0.891222
    outer loop
      vertex 1939.58 21 1969.52
      vertex 1945.18 0 1972.37
      vertex 1945.18 21 1972.37
    endloop
  endfacet
  facet normal -0.453568 0 0.891222
    outer loop
      vertex 1945.18 0 1972.37
      vertex 1939.58 21 1969.52
      vertex 1939.58 0 1969.52
    endloop
  endfacet
  facet normal -0.940766 0 0.339058
    outer loop
      vertex 1989.98 0 2023.19
      vertex 1992.11 21 2029.1
      vertex 1989.98 21 2023.19
    endloop
  endfacet
  facet normal -0.940766 0 0.339058
    outer loop
      vertex 1992.11 21 2029.1
      vertex 1989.98 0 2023.19
      vertex 1992.11 0 2029.1
    endloop
  endfacet
  facet normal -0.561657 0 0.82737
    outer loop
      vertex 1950.58 21 1975.57
      vertex 1955.78 0 1979.1
      vertex 1955.78 21 1979.1
    endloop
  endfacet
  facet normal -0.561657 0 0.82737
    outer loop
      vertex 1955.78 0 1979.1
      vertex 1950.58 21 1975.57
      vertex 1950.58 0 1975.57
    endloop
  endfacet
  facet normal -0.278715 0 0.960374
    outer loop
      vertex 1921.87 21 1963.14
      vertex 1927.9 0 1964.89
      vertex 1927.9 21 1964.89
    endloop
  endfacet
  facet normal -0.278715 0 0.960374
    outer loop
      vertex 1927.9 0 1964.89
      vertex 1921.87 21 1963.14
      vertex 1921.87 0 1963.14
    endloop
  endfacet
  facet normal -0.960374 0 0.278715
    outer loop
      vertex 1992.11 0 2029.1
      vertex 1993.86 21 2035.13
      vertex 1992.11 21 2029.1
    endloop
  endfacet
  facet normal -0.960374 0 0.278715
    outer loop
      vertex 1993.86 21 2035.13
      vertex 1992.11 0 2029.1
      vertex 1993.86 0 2035.13
    endloop
  endfacet
  facet normal -0.82737 0 0.561657
    outer loop
      vertex 1977.9 0 2001.22
      vertex 1981.43 21 2006.42
      vertex 1977.9 21 2001.22
    endloop
  endfacet
  facet normal -0.82737 0 0.561657
    outer loop
      vertex 1981.43 21 2006.42
      vertex 1977.9 0 2001.22
      vertex 1981.43 0 2006.42
    endloop
  endfacet
  facet normal -0.0939822 0 0.995574
    outer loop
      vertex 1903.28 21 1960.2
      vertex 1909.53 0 1960.79
      vertex 1909.53 21 1960.79
    endloop
  endfacet
  facet normal -0.0939822 0 0.995574
    outer loop
      vertex 1909.53 0 1960.79
      vertex 1903.28 21 1960.2
      vertex 1903.28 0 1960.2
    endloop
  endfacet
  facet normal -0.155881 0 0.987776
    outer loop
      vertex 1909.53 21 1960.79
      vertex 1915.74 0 1961.77
      vertex 1915.74 21 1961.77
    endloop
  endfacet
  facet normal -0.155881 0 0.987776
    outer loop
      vertex 1915.74 0 1961.77
      vertex 1909.53 21 1960.79
      vertex 1909.53 0 1960.79
    endloop
  endfacet
  facet normal -0.509802 0 0.860292
    outer loop
      vertex 1945.18 21 1972.37
      vertex 1950.58 0 1975.57
      vertex 1950.58 21 1975.57
    endloop
  endfacet
  facet normal -0.509802 0 0.860292
    outer loop
      vertex 1950.58 0 1975.57
      vertex 1945.18 21 1972.37
      vertex 1945.18 0 1972.37
    endloop
  endfacet
  facet normal -0.661095 0 0.750303
    outer loop
      vertex 1960.74 21 1982.95
      vertex 1965.45 0 1987.1
      vertex 1965.45 21 1987.1
    endloop
  endfacet
  facet normal -0.661095 0 0.750303
    outer loop
      vertex 1965.45 0 1987.1
      vertex 1960.74 21 1982.95
      vertex 1960.74 0 1982.95
    endloop
  endfacet
  facet normal -0.397563 0 0.917575
    outer loop
      vertex 1933.81 21 1967.02
      vertex 1939.58 0 1969.52
      vertex 1939.58 21 1969.52
    endloop
  endfacet
  facet normal -0.397563 0 0.917575
    outer loop
      vertex 1939.58 0 1969.52
      vertex 1933.81 21 1967.02
      vertex 1933.81 0 1967.02
    endloop
  endfacet
  facet normal -0.860292 0 0.509802
    outer loop
      vertex 1981.43 0 2006.42
      vertex 1984.63 21 2011.82
      vertex 1981.43 21 2006.42
    endloop
  endfacet
  facet normal -0.860292 0 0.509802
    outer loop
      vertex 1984.63 21 2011.82
      vertex 1981.43 0 2006.42
      vertex 1984.63 0 2011.82
    endloop
  endfacet
  facet normal -0.21811 0 0.975924
    outer loop
      vertex 1915.74 21 1961.77
      vertex 1921.87 0 1963.14
      vertex 1921.87 21 1963.14
    endloop
  endfacet
  facet normal -0.21811 0 0.975924
    outer loop
      vertex 1921.87 0 1963.14
      vertex 1915.74 21 1961.77
      vertex 1915.74 0 1961.77
    endloop
  endfacet
  facet normal -0.891222 0 0.453568
    outer loop
      vertex 1984.63 0 2011.82
      vertex 1987.48 21 2017.42
      vertex 1984.63 21 2011.82
    endloop
  endfacet
  facet normal -0.891222 0 0.453568
    outer loop
      vertex 1987.48 21 2017.42
      vertex 1984.63 0 2011.82
      vertex 1987.48 0 2017.42
    endloop
  endfacet
  facet normal -0.750303 0 0.661095
    outer loop
      vertex 1969.9 0 1991.55
      vertex 1974.05 21 1996.26
      vertex 1969.9 21 1991.55
    endloop
  endfacet
  facet normal -0.750303 0 0.661095
    outer loop
      vertex 1974.05 21 1996.26
      vertex 1969.9 0 1991.55
      vertex 1974.05 0 1996.26
    endloop
  endfacet
  facet normal -0.987776 0 0.155881
    outer loop
      vertex 1995.23 0 2041.26
      vertex 1996.21 21 2047.47
      vertex 1995.23 21 2041.26
    endloop
  endfacet
  facet normal -0.987776 0 0.155881
    outer loop
      vertex 1996.21 21 2047.47
      vertex 1995.23 0 2041.26
      vertex 1996.21 0 2047.47
    endloop
  endfacet
  facet normal -0.707107 0 0.707107
    outer loop
      vertex 1965.45 0 1987.1
      vertex 1969.9 21 1991.55
      vertex 1965.45 21 1987.1
    endloop
  endfacet
  facet normal -0.707107 0 0.707107
    outer loop
      vertex 1969.9 21 1991.55
      vertex 1965.45 0 1987.1
      vertex 1969.9 0 1991.55
    endloop
  endfacet
  facet normal 0.975924 -0 0.21811
    outer loop
      vertex 1498.77 0 2041.26
      vertex 1500.14 21 2035.13
      vertex 1498.77 21 2041.26
    endloop
  endfacet
  facet normal 0.975924 0 0.21811
    outer loop
      vertex 1500.14 21 2035.13
      vertex 1498.77 0 2041.26
      vertex 1500.14 0 2035.13
    endloop
  endfacet
  facet normal 0.707107 -0 0.707107
    outer loop
      vertex 1524.1 0 1991.55
      vertex 1528.55 21 1987.1
      vertex 1524.1 21 1991.55
    endloop
  endfacet
  facet normal 0.707107 0 0.707107
    outer loop
      vertex 1528.55 21 1987.1
      vertex 1524.1 0 1991.55
      vertex 1528.55 0 1987.1
    endloop
  endfacet
  facet normal 0.661095 0 0.750303
    outer loop
      vertex 1528.55 21 1987.1
      vertex 1533.26 0 1982.95
      vertex 1533.26 21 1982.95
    endloop
  endfacet
  facet normal 0.661095 0 0.750303
    outer loop
      vertex 1533.26 0 1982.95
      vertex 1528.55 21 1987.1
      vertex 1528.55 0 1987.1
    endloop
  endfacet
  facet normal 0.750303 -0 0.661095
    outer loop
      vertex 1519.95 0 1996.26
      vertex 1524.1 21 1991.55
      vertex 1519.95 21 1996.26
    endloop
  endfacet
  facet normal 0.750303 0 0.661095
    outer loop
      vertex 1524.1 21 1991.55
      vertex 1519.95 0 1996.26
      vertex 1524.1 0 1991.55
    endloop
  endfacet
  facet normal 0.613168 0 0.789952
    outer loop
      vertex 1533.26 21 1982.95
      vertex 1538.22 0 1979.1
      vertex 1538.22 21 1979.1
    endloop
  endfacet
  facet normal 0.613168 0 0.789952
    outer loop
      vertex 1538.22 0 1979.1
      vertex 1533.26 21 1982.95
      vertex 1533.26 0 1982.95
    endloop
  endfacet
  facet normal 0.339058 0 0.940766
    outer loop
      vertex 1560.19 21 1967.02
      vertex 1566.1 0 1964.89
      vertex 1566.1 21 1964.89
    endloop
  endfacet
  facet normal 0.339058 0 0.940766
    outer loop
      vertex 1566.1 0 1964.89
      vertex 1560.19 21 1967.02
      vertex 1560.19 0 1967.02
    endloop
  endfacet
  facet normal 0.397563 0 0.917575
    outer loop
      vertex 1554.42 21 1969.52
      vertex 1560.19 0 1967.02
      vertex 1560.19 21 1967.02
    endloop
  endfacet
  facet normal 0.397563 0 0.917575
    outer loop
      vertex 1560.19 0 1967.02
      vertex 1554.42 21 1969.52
      vertex 1554.42 0 1969.52
    endloop
  endfacet
  facet normal 0.940766 -0 0.339058
    outer loop
      vertex 1501.89 0 2029.1
      vertex 1504.02 21 2023.19
      vertex 1501.89 21 2029.1
    endloop
  endfacet
  facet normal 0.940766 0 0.339058
    outer loop
      vertex 1504.02 21 2023.19
      vertex 1501.89 0 2029.1
      vertex 1504.02 0 2023.19
    endloop
  endfacet
  facet normal 0.453568 0 0.891222
    outer loop
      vertex 1548.82 21 1972.37
      vertex 1554.42 0 1969.52
      vertex 1554.42 21 1969.52
    endloop
  endfacet
  facet normal 0.453568 0 0.891222
    outer loop
      vertex 1554.42 0 1969.52
      vertex 1548.82 21 1972.37
      vertex 1548.82 0 1972.37
    endloop
  endfacet
  facet normal 0.561657 0 0.82737
    outer loop
      vertex 1538.22 21 1979.1
      vertex 1543.42 0 1975.57
      vertex 1543.42 21 1975.57
    endloop
  endfacet
  facet normal 0.561657 0 0.82737
    outer loop
      vertex 1543.42 0 1975.57
      vertex 1538.22 21 1979.1
      vertex 1538.22 0 1979.1
    endloop
  endfacet
  facet normal 0.995574 -0 0.0939822
    outer loop
      vertex 1497.2 0 2053.72
      vertex 1497.79 21 2047.47
      vertex 1497.2 21 2053.72
    endloop
  endfacet
  facet normal 0.995574 0 0.0939822
    outer loop
      vertex 1497.79 21 2047.47
      vertex 1497.2 0 2053.72
      vertex 1497.79 0 2047.47
    endloop
  endfacet
  facet normal 0.891222 -0 0.453568
    outer loop
      vertex 1506.52 0 2017.42
      vertex 1509.37 21 2011.82
      vertex 1506.52 21 2017.42
    endloop
  endfacet
  facet normal 0.891222 0 0.453568
    outer loop
      vertex 1509.37 21 2011.82
      vertex 1506.52 0 2017.42
      vertex 1509.37 0 2011.82
    endloop
  endfacet
  facet normal 0.0939822 0 0.995574
    outer loop
      vertex 1584.47 21 1960.79
      vertex 1590.72 0 1960.2
      vertex 1590.72 21 1960.2
    endloop
  endfacet
  facet normal 0.0939822 0 0.995574
    outer loop
      vertex 1590.72 0 1960.2
      vertex 1584.47 21 1960.79
      vertex 1584.47 0 1960.79
    endloop
  endfacet
  facet normal 0.987776 -0 0.155881
    outer loop
      vertex 1497.79 0 2047.47
      vertex 1498.77 21 2041.26
      vertex 1497.79 21 2047.47
    endloop
  endfacet
  facet normal 0.987776 0 0.155881
    outer loop
      vertex 1498.77 21 2041.26
      vertex 1497.79 0 2047.47
      vertex 1498.77 0 2041.26
    endloop
  endfacet
  facet normal 0.999493 -0 0.031831
    outer loop
      vertex 1497 0 2060
      vertex 1497.2 21 2053.72
      vertex 1497 21 2060
    endloop
  endfacet
  facet normal 0.999493 0 0.031831
    outer loop
      vertex 1497.2 21 2053.72
      vertex 1497 0 2060
      vertex 1497.2 0 2053.72
    endloop
  endfacet
  facet normal 0.031831 0 0.999493
    outer loop
      vertex 1590.72 21 1960.2
      vertex 1597 0 1960
      vertex 1597 21 1960
    endloop
  endfacet
  facet normal 0.031831 0 0.999493
    outer loop
      vertex 1597 0 1960
      vertex 1590.72 21 1960.2
      vertex 1590.72 0 1960.2
    endloop
  endfacet
  facet normal 0.960374 -0 0.278715
    outer loop
      vertex 1500.14 0 2035.13
      vertex 1501.89 21 2029.1
      vertex 1500.14 21 2035.13
    endloop
  endfacet
  facet normal 0.960374 0 0.278715
    outer loop
      vertex 1501.89 21 2029.1
      vertex 1500.14 0 2035.13
      vertex 1501.89 0 2029.1
    endloop
  endfacet
  facet normal 0.21811 0 0.975924
    outer loop
      vertex 1572.13 21 1963.14
      vertex 1578.26 0 1961.77
      vertex 1578.26 21 1961.77
    endloop
  endfacet
  facet normal 0.21811 0 0.975924
    outer loop
      vertex 1578.26 0 1961.77
      vertex 1572.13 21 1963.14
      vertex 1572.13 0 1963.14
    endloop
  endfacet
  facet normal 0.155881 0 0.987776
    outer loop
      vertex 1578.26 21 1961.77
      vertex 1584.47 0 1960.79
      vertex 1584.47 21 1960.79
    endloop
  endfacet
  facet normal 0.155881 0 0.987776
    outer loop
      vertex 1584.47 0 1960.79
      vertex 1578.26 21 1961.77
      vertex 1578.26 0 1961.77
    endloop
  endfacet
  facet normal 0.917575 -0 0.397563
    outer loop
      vertex 1504.02 0 2023.19
      vertex 1506.52 21 2017.42
      vertex 1504.02 21 2023.19
    endloop
  endfacet
  facet normal 0.917575 0 0.397563
    outer loop
      vertex 1506.52 21 2017.42
      vertex 1504.02 0 2023.19
      vertex 1506.52 0 2017.42
    endloop
  endfacet
  facet normal 0.278715 0 0.960374
    outer loop
      vertex 1566.1 21 1964.89
      vertex 1572.13 0 1963.14
      vertex 1572.13 21 1963.14
    endloop
  endfacet
  facet normal 0.278715 0 0.960374
    outer loop
      vertex 1572.13 0 1963.14
      vertex 1566.1 21 1964.89
      vertex 1566.1 0 1964.89
    endloop
  endfacet
  facet normal 0.860292 -0 0.509802
    outer loop
      vertex 1509.37 0 2011.82
      vertex 1512.57 21 2006.42
      vertex 1509.37 21 2011.82
    endloop
  endfacet
  facet normal 0.860292 0 0.509802
    outer loop
      vertex 1512.57 21 2006.42
      vertex 1509.37 0 2011.82
      vertex 1512.57 0 2006.42
    endloop
  endfacet
  facet normal 0.789952 -0 0.613168
    outer loop
      vertex 1516.1 0 2001.22
      vertex 1519.95 21 1996.26
      vertex 1516.1 21 2001.22
    endloop
  endfacet
  facet normal 0.789952 0 0.613168
    outer loop
      vertex 1519.95 21 1996.26
      vertex 1516.1 0 2001.22
      vertex 1519.95 0 1996.26
    endloop
  endfacet
  facet normal 0.509802 0 0.860292
    outer loop
      vertex 1543.42 21 1975.57
      vertex 1548.82 0 1972.37
      vertex 1548.82 21 1972.37
    endloop
  endfacet
  facet normal 0.509802 0 0.860292
    outer loop
      vertex 1548.82 0 1972.37
      vertex 1543.42 21 1975.57
      vertex 1543.42 0 1975.57
    endloop
  endfacet
  facet normal 0.82737 -0 0.561657
    outer loop
      vertex 1512.57 0 2006.42
      vertex 1516.1 21 2001.22
      vertex 1512.57 21 2006.42
    endloop
  endfacet
  facet normal 0.82737 0 0.561657
    outer loop
      vertex 1516.1 21 2001.22
      vertex 1512.57 0 2006.42
      vertex 1516.1 0 2001.22
    endloop
  endfacet
  facet normal 0 0 1
    outer loop
      vertex 2047 1247 2260
      vertex 2026 1226 2260
      vertex 2047 0 2260
    endloop
  endfacet
  facet normal 0 0 1
    outer loop
      vertex 2047 1247 2260
      vertex 21 1226 2260
      vertex 2026 1226 2260
    endloop
  endfacet
  facet normal 0 0 1
    outer loop
      vertex 21 1226 2260
      vertex 0 1247 2260
      vertex 21 21 2260
    endloop
  endfacet
  facet normal -0 0 1
    outer loop
      vertex 0 1247 2260
      vertex 21 1226 2260
      vertex 2047 1247 2260
    endloop
  endfacet
  facet normal -0 0 1
    outer loop
      vertex 2026 21 2260
      vertex 2047 0 2260
      vertex 2026 1226 2260
    endloop
  endfacet
  facet normal 0 0 1
    outer loop
      vertex 1997 0 2260
      vertex 2026 21 2260
      vertex 1997 21 2260
    endloop
  endfacet
  facet normal 0 0 1
    outer loop
      vertex 2026 21 2260
      vertex 1997 0 2260
      vertex 2047 0 2260
    endloop
  endfacet
  facet normal -0 0 1
    outer loop
      vertex 21 21 2260
      vertex 1497 0 2260
      vertex 1497 21 2260
    endloop
  endfacet
  facet normal 0 0 1
    outer loop
      vertex 21 21 2260
      vertex 0 0 2260
      vertex 1497 0 2260
    endloop
  endfacet
  facet normal 0 0 1
    outer loop
      vertex 0 0 2260
      vertex 21 21 2260
      vertex 0 1247 2260
    endloop
  endfacet
  facet normal 0 0 -1
    outer loop
      vertex 0 0 1690
      vertex 2047 21 1690
      vertex 2047 0 1690
    endloop
  endfacet
  facet normal -0 0 -1
    outer loop
      vertex 2047 21 1690
      vertex 0 0 1690
      vertex 0 21 1690
    endloop
  endfacet
  facet normal 0 -1 0
    outer loop
      vertex 0 0 2260
      vertex 1497 0 2060
      vertex 1497 0 2260
    endloop
  endfacet
  facet normal 0 -1 0
    outer loop
      vertex 0 0 2260
      vertex 1497.2 0 2053.72
      vertex 1497 0 2060
    endloop
  endfacet
  facet normal 0 -1 0
    outer loop
      vertex 0 0 2260
      vertex 1497.79 0 2047.47
      vertex 1497.2 0 2053.72
    endloop
  endfacet
  facet normal 0 -1 0
    outer loop
      vertex 0 0 1690
      vertex 1497.79 0 2047.47
      vertex 0 0 2260
    endloop
  endfacet
  facet normal 0 -1 -0
    outer loop
      vertex 1497.79 0 2047.47
      vertex 0 0 1690
      vertex 1498.77 0 2041.26
    endloop
  endfacet
  facet normal 0 -1 -0
    outer loop
      vertex 1498.77 0 2041.26
      vertex 0 0 1690
      vertex 1500.14 0 2035.13
    endloop
  endfacet
  facet normal 0 -1 -0
    outer loop
      vertex 1500.14 0 2035.13
      vertex 0 0 1690
      vertex 1501.89 0 2029.1
    endloop
  endfacet
  facet normal 0 -1 -0
    outer loop
      vertex 1501.89 0 2029.1
      vertex 0 0 1690
      vertex 1504.02 0 2023.19
    endloop
  endfacet
  facet normal 0 -1 -0
    outer loop
      vertex 1504.02 0 2023.19
      vertex 0 0 1690
      vertex 1506.52 0 2017.42
    endloop
  endfacet
  facet normal 0 -1 -0
    outer loop
      vertex 1506.52 0 2017.42
      vertex 0 0 1690
      vertex 1509.37 0 2011.82
    endloop
  endfacet
  facet normal 0 -1 -0
    outer loop
      vertex 1509.37 0 2011.82
      vertex 0 0 1690
      vertex 1512.57 0 2006.42
    endloop
  endfacet
  facet normal 0 -1 -0
    outer loop
      vertex 1512.57 0 2006.42
      vertex 0 0 1690
      vertex 1516.1 0 2001.22
    endloop
  endfacet
  facet normal 0 -1 -0
    outer loop
      vertex 1516.1 0 2001.22
      vertex 0 0 1690
      vertex 1519.95 0 1996.26
    endloop
  endfacet
  facet normal 0 -1 -0
    outer loop
      vertex 1519.95 0 1996.26
      vertex 0 0 1690
      vertex 1524.1 0 1991.55
    endloop
  endfacet
  facet normal 0 -1 -0
    outer loop
      vertex 1524.1 0 1991.55
      vertex 0 0 1690
      vertex 1528.55 0 1987.1
    endloop
  endfacet
  facet normal 0 -1 -0
    outer loop
      vertex 1528.55 0 1987.1
      vertex 0 0 1690
      vertex 1533.26 0 1982.95
    endloop
  endfacet
  facet normal 0 -1 -0
    outer loop
      vertex 1533.26 0 1982.95
      vertex 0 0 1690
      vertex 1538.22 0 1979.1
    endloop
  endfacet
  facet normal 0 -1 -0
    outer loop
      vertex 1538.22 0 1979.1
      vertex 0 0 1690
      vertex 1543.42 0 1975.57
    endloop
  endfacet
  facet normal 0 -1 -0
    outer loop
      vertex 1543.42 0 1975.57
      vertex 0 0 1690
      vertex 1548.82 0 1972.37
    endloop
  endfacet
  facet normal 0 -1 -0
    outer loop
      vertex 1548.82 0 1972.37
      vertex 0 0 1690
      vertex 1554.42 0 1969.52
    endloop
  endfacet
  facet normal 0 -1 -0
    outer loop
      vertex 1554.42 0 1969.52
      vertex 0 0 1690
      vertex 1560.19 0 1967.02
    endloop
  endfacet
  facet normal 0 -1 -0
    outer loop
      vertex 1560.19 0 1967.02
      vertex 0 0 1690
      vertex 1566.1 0 1964.89
    endloop
  endfacet
  facet normal 0 -1 0
    outer loop
      vertex 2047 0 1690
      vertex 1566.1 0 1964.89
      vertex 0 0 1690
    endloop
  endfacet
  facet normal 0 -1 0
    outer loop
      vertex 1590.72 0 1960.2
      vertex 2047 0 1690
      vertex 1597 0 1960
    endloop
  endfacet
  facet normal 0 -1 0
    outer loop
      vertex 1584.47 0 1960.79
      vertex 2047 0 1690
      vertex 1590.72 0 1960.2
    endloop
  endfacet
  facet normal 0 -1 0
    outer loop
      vertex 1578.26 0 1961.77
      vertex 2047 0 1690
      vertex 1584.47 0 1960.79
    endloop
  endfacet
  facet normal 0 -1 0
    outer loop
      vertex 1572.13 0 1963.14
      vertex 2047 0 1690
      vertex 1578.26 0 1961.77
    endloop
  endfacet
  facet normal 0 -1 0
    outer loop
      vertex 1566.1 0 1964.89
      vertex 2047 0 1690
      vertex 1572.13 0 1963.14
    endloop
  endfacet
  facet normal 0 -1 0
    outer loop
      vertex 1997 0 2060
      vertex 2047 0 2260
      vertex 1997 0 2260
    endloop
  endfacet
  facet normal 0 -1 0
    outer loop
      vertex 1996.8 0 2053.72
      vertex 2047 0 2260
      vertex 1997 0 2060
    endloop
  endfacet
  facet normal 0 -1 0
    outer loop
      vertex 1996.21 0 2047.47
      vertex 2047 0 2260
      vertex 1996.8 0 2053.72
    endloop
  endfacet
  facet normal 0 -1 0
    outer loop
      vertex 2047 0 1690
      vertex 1996.21 0 2047.47
      vertex 1995.23 0 2041.26
    endloop
  endfacet
  facet normal 0 -1 0
    outer loop
      vertex 2047 0 1690
      vertex 1995.23 0 2041.26
      vertex 1993.86 0 2035.13
    endloop
  endfacet
  facet normal 0 -1 0
    outer loop
      vertex 1597 0 1960
      vertex 2047 0 1690
      vertex 1897 0 1960
    endloop
  endfacet
  facet normal 0 -1 0
    outer loop
      vertex 1897 0 1960
      vertex 2047 0 1690
      vertex 1903.28 0 1960.2
    endloop
  endfacet
  facet normal 0 -1 0
    outer loop
      vertex 1996.21 0 2047.47
      vertex 2047 0 1690
      vertex 2047 0 2260
    endloop
  endfacet
  facet normal 0 -1 0
    outer loop
      vertex 1992.11 0 2029.1
      vertex 2047 0 1690
      vertex 1993.86 0 2035.13
    endloop
  endfacet
  facet normal 0 -1 0
    outer loop
      vertex 1989.98 0 2023.19
      vertex 2047 0 1690
      vertex 1992.11 0 2029.1
    endloop
  endfacet
  facet normal 0 -1 0
    outer loop
      vertex 1987.48 0 2017.42
      vertex 2047 0 1690
      vertex 1989.98 0 2023.19
    endloop
  endfacet
  facet normal 0 -1 0
    outer loop
      vertex 1984.63 0 2011.82
      vertex 2047 0 1690
      vertex 1987.48 0 2017.42
    endloop
  endfacet
  facet normal 0 -1 0
    outer loop
      vertex 1981.43 0 2006.42
      vertex 2047 0 1690
      vertex 1984.63 0 2011.82
    endloop
  endfacet
  facet normal 0 -1 0
    outer loop
      vertex 1977.9 0 2001.22
      vertex 2047 0 1690
      vertex 1981.43 0 2006.42
    endloop
  endfacet
  facet normal 0 -1 0
    outer loop
      vertex 1974.05 0 1996.26
      vertex 2047 0 1690
      vertex 1977.9 0 2001.22
    endloop
  endfacet
  facet normal 0 -1 0
    outer loop
      vertex 1969.9 0 1991.55
      vertex 2047 0 1690
      vertex 1974.05 0 1996.26
    endloop
  endfacet
  facet normal 0 -1 0
    outer loop
      vertex 1965.45 0 1987.1
      vertex 2047 0 1690
      vertex 1969.9 0 1991.55
    endloop
  endfacet
  facet normal 0 -1 0
    outer loop
      vertex 1960.74 0 1982.95
      vertex 2047 0 1690
      vertex 1965.45 0 1987.1
    endloop
  endfacet
  facet normal 0 -1 0
    outer loop
      vertex 1955.78 0 1979.1
      vertex 2047 0 1690
      vertex 1960.74 0 1982.95
    endloop
  endfacet
  facet normal 0 -1 0
    outer loop
      vertex 1950.58 0 1975.57
      vertex 2047 0 1690
      vertex 1955.78 0 1979.1
    endloop
  endfacet
  facet normal 0 -1 0
    outer loop
      vertex 1945.18 0 1972.37
      vertex 2047 0 1690
      vertex 1950.58 0 1975.57
    endloop
  endfacet
  facet normal 0 -1 0
    outer loop
      vertex 1939.58 0 1969.52
      vertex 2047 0 1690
      vertex 1945.18 0 1972.37
    endloop
  endfacet
  facet normal 0 -1 0
    outer loop
      vertex 1933.81 0 1967.02
      vertex 2047 0 1690
      vertex 1939.58 0 1969.52
    endloop
  endfacet
  facet normal 0 -1 0
    outer loop
      vertex 1927.9 0 1964.89
      vertex 2047 0 1690
      vertex 1933.81 0 1967.02
    endloop
  endfacet
  facet normal 0 -1 0
    outer loop
      vertex 1921.87 0 1963.14
      vertex 2047 0 1690
      vertex 1927.9 0 1964.89
    endloop
  endfacet
  facet normal 0 -1 0
    outer loop
      vertex 1915.74 0 1961.77
      vertex 2047 0 1690
      vertex 1921.87 0 1963.14
    endloop
  endfacet
  facet normal 0 -1 0
    outer loop
      vertex 1909.53 0 1960.79
      vertex 2047 0 1690
      vertex 1915.74 0 1961.77
    endloop
  endfacet
  facet normal 0 -1 0
    outer loop
      vertex 1903.28 0 1960.2
      vertex 2047 0 1690
      vertex 1909.53 0 1960.79
    endloop
  endfacet
  facet normal 1 0 0
    outer loop
      vertex 21 1226 2260
      vertex 21 1126 1730
      vertex 21 1226 1730
    endloop
  endfacet
  facet normal 1 0 0
    outer loop
      vertex 21 1226 2260
      vertex 21 121 1730
      vertex 21 1126 1730
    endloop
  endfacet
  facet normal 1 -0 0
    outer loop
      vertex 21 21 2260
      vertex 21 121 1730
      vertex 21 1226 2260
    endloop
  endfacet
  facet normal 1 0 0
    outer loop
      vertex 21 121 1730
      vertex 21 21 2260
      vertex 21 21 1730
    endloop
  endfacet
  facet normal -1 0 0
    outer loop
      vertex 2026 1126 1730
      vertex 2026 1226 2260
      vertex 2026 1226 1730
    endloop
  endfacet
  facet normal -1 0 0
    outer loop
      vertex 2026 121 1730
      vertex 2026 1226 2260
      vertex 2026 1126 1730
    endloop
  endfacet
  facet normal -1 0 0
    outer loop
      vertex 2026 21 2260
      vertex 2026 121 1730
      vertex 2026 21 1730
    endloop
  endfacet
  facet normal -1 0 0
    outer loop
      vertex 2026 121 1730
      vertex 2026 21 2260
      vertex 2026 1226 2260
    endloop
  endfacet
  facet normal 0 0 -1
    outer loop
      vertex 0 1226 1690
      vertex 2047 1247 1690
      vertex 2047 1226 1690
    endloop
  endfacet
  facet normal -0 0 -1
    outer loop
      vertex 2047 1247 1690
      vertex 0 1226 1690
      vertex 0 1247 1690
    endloop
  endfacet
  facet normal 0 1 -0
    outer loop
      vertex 2047 1247 1690
      vertex 0 1247 2260
      vertex 2047 1247 2260
    endloop
  endfacet
  facet normal 0 1 0
    outer loop
      vertex 0 1247 2260
      vertex 2047 1247 1690
      vertex 0 1247 1690
    endloop
  endfacet
endsolid OpenSCAD_Model
